<svg xmlns="http://www.w3.org/2000/svg" xmlns:xlink="http://www.w3.org/1999/xlink" xmlns:lucid="lucid" width="2284" height="1272.25"><g transform="translate(322 1610.25474609375)" lucid:page-tab-id="0_0"><path d="M-500-2000h2500V0H-500z" fill="#fff"/><path d="M-320-1554a6 6 0 0 1 6-6h2268a6 6 0 0 1 6 6v1208a6 6 0 0 1-6 6H-314a6 6 0 0 1-6-6z" stroke="#000" stroke-width="4" fill-opacity="0"/><path d="M-320-1602.26a6 6 0 0 1 6-6h290.03a6 6 0 0 1 6 6v24.26a6 6 0 0 1-6 6H-314a6 6 0 0 1-6-6z" stroke="#000" stroke-width="4"/><use xlink:href="#a" transform="matrix(1,0,0,1,-312,-1600.25474609375) translate(0 16.589501953125)"/><use xlink:href="#b" transform="matrix(1,0,0,1,-312,-1600.25474609375) translate(112.02231445312499 16.589501953125)"/><use xlink:href="#c" transform="matrix(1,0,0,1,-312,-1600.25474609375) translate(152.384677734375 16.589501953125)"/><use xlink:href="#d" transform="matrix(1,0,0,1,-312,-1600.25474609375) translate(189.14238281250002 16.589501953125)"/><path d="M-240-1480H40v280h-280z" stroke="#242f3e" stroke-width="3" fill="#fff" fill-opacity="0"/><path d="M-240-1480h56v56h-56z" stroke="#fff" stroke-opacity="0" fill="#242f3e"/><path d="M-221.78-1454.13c-.04.48.04.87.17 1.34.1.4.28.7.48 1.08.04.1.08.2.08.33 0 .2-.12.36-.28.46l-.95.62c-.12.1-.24.13-.37.13-.16 0-.33-.06-.45-.2-.2-.2-.36-.43-.52-.7-.17-.25-.3-.53-.45-.86-1.1 1.37-2.63 2.1-4.4 2.06-1.15.06-2.13-.3-2.96-1.08-.78-.8-1.14-1.76-1.1-2.85-.04-1.23.4-2.28 1.35-3.08 1.07-.86 2.3-1.23 3.66-1.16.57 0 1.02.02 1.6.1.57.1 1.1.2 1.72.33v-1.1c.08-.88-.16-1.67-.7-2.37-.74-.56-1.56-.8-2.46-.7-.53 0-1.03.07-1.6.2-.58.13-1.03.3-1.6.5l-.5.2h-.24c-.2 0-.33-.16-.33-.45v-.75c0-.18.04-.34.12-.5.12-.16.24-.26.4-.33.66-.3 1.2-.5 1.9-.67.77-.2 1.47-.3 2.3-.28 1.47-.13 2.78.26 3.9 1.2.94 1.05 1.35 2.28 1.22 3.67zm-6.07 2.28c.57 0 1.06-.1 1.6-.28.57-.2 1.03-.5 1.44-.96.23-.27.4-.57.48-.93.12-.45.16-.84.16-1.3v-.67c-.53-.1-.94-.17-1.44-.2h-1.4c-.8-.08-1.55.12-2.2.58-.54.45-.8 1.04-.75 1.73-.04.62.13 1.16.54 1.6.44.38.97.52 1.55.45zm12 1.6c-.22.02-.42-.03-.6-.15-.15-.17-.23-.36-.32-.6l-3.5-11.5-.1-.62c0-.24.1-.37.36-.37h1.47c.2 0 .37.04.57.15.17.18.25.37.3.6l2.5 9.96 2.38-9.93c0-.24.08-.44.28-.6.17-.12.37-.16.58-.14h1.2c.24-.02.4.02.6.13.17.2.25.37.3.6l2.33 9.95 2.56-10c.04-.2.16-.4.33-.58.15-.1.36-.17.56-.14h1.4c.16 0 .33.12.37.3v.31s0 .2-.12.35l-3.6 11.53c-.05.22-.13.42-.3.6-.2.1-.36.14-.57.13h-1.27c-.25.04-.46-.02-.62-.15-.16-.16-.25-.36-.3-.6l-2.3-9.6-2.28 9.6c-.05.24-.13.43-.3.6-.2.13-.4.2-.6.16zm19.2.38c-.82 0-1.5-.07-2.3-.25-.65-.13-1.15-.3-1.72-.6-.2-.1-.37-.23-.45-.4v-.02c-.08-.14-.12-.28-.12-.43v-.75c0-.3.12-.46.32-.46h.3l.36.15c.58.24 1.03.4 1.6.5.62.15 1.15.2 1.8.2.8.06 1.5-.1 2.2-.48.48-.32.77-.83.72-1.42.05-.4-.12-.76-.37-1.04-.46-.4-.95-.65-1.52-.8l-2.18-.67c-.94-.26-1.72-.74-2.38-1.5-.5-.66-.74-1.36-.74-2.2 0-.58.12-1.07.4-1.6.3-.5.63-.88 1.08-1.2.5-.4.98-.62 1.6-.8.66-.17 1.2-.25 1.9-.24.32-.03.6-.03.97 0l1 .16.8.23.67.25c.16.1.28.22.45.38.08.15.12.3.12.5v.7c0 .32-.12.47-.37.47-.2-.03-.37-.1-.57-.18-.95-.43-1.8-.6-2.88-.58-.7-.04-1.3.1-1.97.4-.5.3-.74.8-.7 1.36 0 .4.13.76.46 1.05.5.4.98.65 1.6.82l2.1.67c.94.24 1.68.7 2.3 1.44.48.64.7 1.3.7 2.1 0 .63-.13 1.17-.38 1.73-.3.55-.62.95-1.1 1.32-.5.4-1 .66-1.6.84-.75.23-1.4.33-2.15.34zM-193.9-1442.52c-5.6 3.82-11.36 5.58-18.15 5.56-8.54.05-15.82-2.74-22.16-8.45-.5-.42 0-1 .48-.68 7.07 4.05 14.03 5.9 22.2 5.9 6.1-.04 11.3-1.1 16.93-3.47.83-.35 1.52.55.7 1.13z" stroke="#fff" stroke-opacity="0" fill="#fff"/><path d="M-191.84-1444.8c-.64-.82-4.16-.38-5.75-.2-.46 0-.53-.36-.1-.66 2.8-1.98 7.42-1.4 8-.74.6.67-.14 5.28-2.78 7.5-.4.33-.78.13-.6-.3.54-1.52 1.86-4.83 1.24-5.6z" stroke="#fff" stroke-opacity="0" fill="#fff"/><use xlink:href="#e" transform="matrix(1,0,0,1,-169,-1460) translate(0 21.52777777777778)"/><path d="M80-1474a6 6 0 0 1 6-6h268a6 6 0 0 1 6 6v268a6 6 0 0 1-6 6H86a6 6 0 0 1-6-6z" stroke="#00c2a8" stroke-width="4" fill-opacity="0"/><path d="M80-1522.26a6 6 0 0 1 6-6h109.45a6 6 0 0 1 6 6v24.26a6 6 0 0 1-6 6H86a6 6 0 0 1-6-6z" stroke="#00c2a8" stroke-width="4" fill="#00c2a8"/><use xlink:href="#f" transform="matrix(1,0,0,1,88,-1520.25474609375) translate(0 16.589501953125)"/><path d="M80-1480h1164.8v1054H80z" fill="#fff" fill-opacity="0"/><path d="M97.83-1480h11.88m11.9 0h11.9m11.87 0h11.9m11.87 0h11.9m11.87 0h11.9m11.9 0h11.87m11.9 0h11.87m11.9 0h11.87m11.9 0h11.9m11.87 0h11.9m11.87 0h11.9m11.87 0h11.9m11.9 0h11.87m11.9 0h11.87m11.9 0h11.87m11.9 0h11.9m11.87 0h11.9m11.87 0h11.9m11.87 0h11.9m11.9 0h11.87m11.9 0h11.87m11.9 0h11.87m11.9 0h11.9m11.87 0h11.9m11.87 0h11.9m11.87 0H704m11.9 0h11.87m11.9 0h11.87m11.9 0h11.87m11.9 0h11.9m11.87 0h11.9m11.87 0h11.9m11.87 0h11.9m11.9 0h11.87m11.9 0h11.87m11.9 0h11.87m11.9 0h11.9m11.87 0h11.9m11.87 0h11.9m11.87 0h11.9m11.9 0h11.87m11.9 0h11.87m11.9 0h11.87m11.9 0h11.9m11.87 0h11.9m11.87 0h11.9m11.87 0h11.9m11.9 0h11.87m11.9 0h5.93v6m0 11.97v11.97m0 11.98v11.98m0 11.97v11.98m0 11.98v11.98m0 11.98v11.98m0 11.98v11.98m0 11.97v11.97m0 11.98v11.97m0 11.98v11.98m0 11.98v11.97m0 11.98v12m0 11.97v11.97m0 11.98v11.98m0 11.97v11.98m0 11.98v11.98m0 11.98v11.98m0 11.98v11.98m0 11.97v11.97m0 11.98v11.97m0 11.98v11.98m0 11.98v11.97m0 11.98v12m0 11.97v11.97m0 11.98v11.98m0 11.98v11.97m0 11.98v11.98m0 11.98v11.98m0 11.98v11.98m0 11.97v11.97m0 11.98v11.98m0 11.97v11.98m0 11.98v11.97m0 11.98v12m0 11.97v11.97m0 11.98v11.98m0 11.98v11.97m0 11.98v11.98m0 11.98v11.98m0 11.98v11.98m0 11.97v11.97m0 11.98v11.98m0 11.97v11.98m0 11.98v11.97m0 11.98v6h-5.94m-11.9 0h-11.87m-11.9 0h-11.9m-11.87 0h-11.9m-11.87 0h-11.9m-11.87 0H1120m-11.9 0h-11.87m-11.9 0h-11.87m-11.9 0h-11.87m-11.9 0h-11.9m-11.87 0h-11.9m-11.87 0h-11.9m-11.87 0h-11.9m-11.9 0h-11.87m-11.9 0h-11.87m-11.9 0H882.3m-11.9 0h-11.9m-11.87 0h-11.9m-11.87 0h-11.9m-11.87 0h-11.9m-11.9 0h-11.87m-11.9 0h-11.87m-11.9 0H715.9m-11.9 0h-11.9m-11.87 0h-11.9m-11.87 0h-11.9m-11.87 0h-11.9m-11.9 0h-11.87m-11.9 0h-11.87m-11.9 0H549.5m-11.9 0h-11.9m-11.87 0h-11.9m-11.87 0h-11.9m-11.87 0h-11.9m-11.9 0h-11.87m-11.9 0h-11.87m-11.9 0H383.1m-11.9 0h-11.9m-11.87 0h-11.9m-11.87 0h-11.9m-11.87 0H288m-11.9 0h-11.87m-11.9 0h-11.87m-11.9 0H216.7m-11.9 0h-11.9m-11.87 0h-11.9m-11.87 0h-11.9m-11.87 0h-11.9m-11.9 0H97.84m-11.9 0H80v-6m0-11.97v-11.97m0-11.98v-11.98m0-11.98v-11.97m0-11.98v-11.98m0-11.98v-11.98m0-11.98v-11.98m0-11.97v-11.97m0-11.98v-11.98m0-11.97v-11.98m0-11.98v-11.97m0-11.98v-12m0-11.97v-11.97m0-11.98v-11.98m0-11.98v-11.97m0-11.98v-11.98m0-11.98v-11.98m0-11.98v-11.98m0-11.97v-11.97m0-11.98v-11.98m0-11.97v-11.98m0-11.98v-11.97M80-947v-12m0-11.97v-11.97m0-11.98v-11.98m0-11.98v-11.97m0-11.98v-11.98m0-11.98v-11.98m0-11.98v-11.98m0-11.97v-11.97m0-11.98v-11.97m0-11.98v-11.98m0-11.98v-11.97m0-11.98v-12m0-11.97v-11.97m0-11.98v-11.98m0-11.97v-11.98m0-11.98v-11.98m0-11.98v-11.98m0-11.98v-11.98m0-11.97v-11.97m0-11.98v-11.97m0-11.98v-11.98m0-11.98v-11.97m0-11.98v-6h5.94" stroke="#7d8998" stroke-width="3" fill="none"/><use xlink:href="#g" transform="matrix(1,0,0,1,80,-1460) translate(545.5859375 21.52777777777778)"/><path d="M1324.8-1480h600v280h-600z" stroke="#7d8998" stroke-width="3" fill="#fff" fill-opacity="0"/><path d="M1324.8-1480h56v56h-56z" stroke="#fff" stroke-opacity="0" fill="#7d8998"/><path d="M1364.05-1432h-22.5c-.44 0-.8-.36-.8-.8v-38.4c0-.44.36-.8.8-.8h22.5c.44 0 .8.36.8.8v38.4c0 .44-.36.8-.8.8zm-21.66-1.6h20.8v-36.8h-20.8z" stroke="#fff" stroke-opacity="0" fill="#fff"/><path d="M1344.88-1466.24h15.84v1.6h-15.84zM1344.88-1459.22h15.84v1.6h-15.84zM1344.88-1452.2h15.84v1.6h-15.84z" stroke="#fff" stroke-opacity="0" fill="#fff"/><use xlink:href="#h" transform="matrix(1,0,0,1,1395.8000000000002,-1460) translate(0 21.52777777777778)"/><path d="M-160-1400h120v120h-120z" stroke="#000" stroke-opacity="0" fill="#dd344c"/><path d="M-101.08-1341.08l6.26-6.26c-1.44-1-3.24-1.66-5.18-1.66-4.97 0-9 4.03-9 9s4.03 9 9 9 9-4.03 9-9c0-1.94-.65-3.74-1.66-5.18l-6.26 6.26-2.16-2.16zm16.92-12.67l-6.34 6.4c1.52 2.02 2.52 4.54 2.52 7.35 0 6.62-5.4 12.02-12.02 12.02-6.62 0-12.02-5.4-12.02-12.02 0-6.62 5.4-12.02 12.02-12.02 2.8 0 5.33 1 7.34 2.6l6.4-6.42c-3.66-3.24-8.48-5.18-13.74-5.18-11.6 0-21.02 9.43-21.02 21.02 0 11.6 9.43 21.02 21.02 21.02 11.6 0 21.02-9.43 21.02-21.02 0-5.26-1.94-10.08-5.18-13.75zm3.67-10.95c0 2.88 2.4 5.2 5.27 5.2 2.88 0 5.25-2.32 5.25-5.2 0-2.88-2.37-5.25-5.25-5.25s-5.26 2.37-5.26 5.25zm-3.66 6.7l2.16-2.1c-.94-1.28-1.44-2.94-1.44-4.6 0-4.53 3.67-8.28 8.2-8.28 4.54 0 8.22 3.75 8.22 8.28 0 4.54-3.68 8.2-8.2 8.2-1.74 0-3.32-.56-4.7-1.5l-2.08 2.16c3.74 4.25 5.98 9.8 5.98 15.84 0 13.25-10.73 23.98-23.98 23.98s-23.98-10.73-23.98-23.98 10.73-23.98 23.98-23.98c6.05 0 11.6 2.24 15.84 5.98zm20.16 18c0 19.87-16.13 36-36 36s-36-16.13-36-36 16.13-36 36-36c5.04 0 9.94 1 14.47 3.02l-1.15 2.74c-4.25-1.8-8.7-2.74-13.32-2.74-18.22 0-32.98 14.76-32.98 32.98s14.76 32.98 32.98 32.98 32.98-14.76 32.98-32.98c0-4.6-.94-9.07-2.74-13.25l2.74-1.22c2 4.53 3.02 9.43 3.02 14.47z" stroke="#000" stroke-opacity="0" fill="#fff"/><use xlink:href="#i" transform="matrix(1,0,0,1,-190,-1271) translate(15.168185763888886 21.52777777777778)"/><use xlink:href="#j" transform="matrix(1,0,0,1,-190,-1271) translate(71.005859375 21.52777777777778)"/><use xlink:href="#k" transform="matrix(1,0,0,1,-190,-1271) translate(30.798611111111114 53.79340277777778)"/><use xlink:href="#l" transform="matrix(1,0,0,1,-190,-1271) translate(117.70182291666667 53.79340277777778)"/><use xlink:href="#m" transform="matrix(1,0,0,1,-190,-1271) translate(45.60438368055556 86.05902777777777)"/><use xlink:href="#n" transform="matrix(1,0,0,1,-190,-1271) translate(127.00629340277777 86.05902777777777)"/><use xlink:href="#o" transform="matrix(1,0,0,1,-190,-1271) translate(25.872395833333343 118.32465277777777)"/><use xlink:href="#n" transform="matrix(1,0,0,1,-190,-1271) translate(146.73828125 118.32465277777777)"/><use xlink:href="#p" transform="matrix(1,0,0,1,-190,-1271) translate(17.34917534722223 150.59027777777777)"/><use xlink:href="#q" transform="matrix(1,0,0,1,-190,-1271) translate(99.89040798611111 150.59027777777777)"/><use xlink:href="#r" transform="matrix(1,0,0,1,-190,-1271) translate(113.52973090277779 150.59027777777777)"/><path d="M160-1400h120v120H160z" stroke="#000" stroke-opacity="0" fill="#7aa116"/><path d="M258.98-1347.48H262v-21h-3.02v21zm-13.44 0h2.94V-1382h-2.94v34.52zM232-1332.52h3.04v-30H232v30zm-13.5 7.56h3V-1373h-3v48.04zM181-1338.5h10.5c.68 14.63 12.35 26.3 26.97 26.98v10.5c-20.34-.68-36.8-17.14-37.48-37.47zm23.94-37.12v11.6c-7.98 4.95-12.93 13.27-13.44 22.5H181.2c.66-14.94 10-28.3 23.76-34.1zm16.55 74.6v-10.5c14.88-.93 26.64-13.2 26.64-28.3h-3.02c0 14.02-11.34 25.36-25.37 25.36-13.95 0-25.3-11.34-25.3-25.37 0-8.23 3.88-15.8 10.5-20.58v20.4H208v-39.9l-2.03.67c-16.63 5.88-27.8 21.76-27.8 39.4H178c0 23.1 18.73 41.83 41.75 41.83 23.1 0 41.83-18.73 41.83-41.83h-3.02c0 20.83-16.47 37.88-37.05 38.8z" stroke="#000" stroke-opacity="0" fill="#fff"/><use xlink:href="#s" transform="matrix(1,0,0,1,130,-1271) translate(45.68033854166667 21.52777777777778)"/><use xlink:href="#t" transform="matrix(1,0,0,1,130,-1271) translate(26.317274305555557 53.79340277777778)"/><use xlink:href="#u" transform="matrix(1,0,0,1,130,-1271) translate(138.98003472222223 53.79340277777778)"/><use xlink:href="#v" transform="matrix(1,0,0,1,130,-1271) translate(20.929904513888886 86.05902777777777)"/><use xlink:href="#w" transform="matrix(1,0,0,1,130,-1271) translate(0.6391059027777857 118.32465277777777)"/><use xlink:href="#x" transform="matrix(1,0,0,1,130,-1271) translate(90 150.59027777777777)"/><use xlink:href="#x" transform="matrix(1,0,0,1,130,-1271) translate(90 182.85590277777777)"/><use xlink:href="#y" transform="matrix(1,0,0,1,130,-1271) translate(90 215.12152777777777)"/><path d="M480-1400h120v120H480z" stroke="#000" stroke-opacity="0" fill="#8c4fff"/><path d="M529.5-1365.45h3v-3h-3v3zm-3 1.53v-6c0-.88.68-1.53 1.5-1.53h6c.82 0 1.5.65 1.5 1.54v5.98c0 .8-.68 1.46-1.5 1.46h-6c-.82 0-1.5-.65-1.5-1.46zm15-10.53h3v-3h-3v3zm-3 1.54v-6c0-.9.68-1.54 1.5-1.54h6c.82 0 1.5.65 1.5 1.54v6c0 .8-.68 1.45-1.5 1.45h-6c-.82 0-1.5-.65-1.5-1.46zm6 13.44h3v-3h-3v3zm-1.48-6h6c.82 0 1.5.65 1.5 1.54v6c0 .8-.68 1.46-1.5 1.46h-6c-.86 0-1.53-.65-1.53-1.46v-6c0-.9.66-1.53 1.52-1.53zm-3.02 15.8c-2.64 0-12.24-.16-18.43-1.7l15.2 24.14c.16.24.25.48.25.8v3.4c2.07.58 4.04.58 6 0v-3.4c0-.32.05-.56.2-.8l15.2-24.14c-6.18 1.54-15.78 1.7-18.42 1.7zm-23.62-4.2c-.24-.42-.38-.74-.38-1.15 0-4.3 14.06-5.1 22.46-5.2l.05 3c-10.3.17-16.6 1.3-18.8 2.2 2.35.97 9.26 2.34 20.3 2.34 11 0 17.95-1.37 20.3-2.35-.96-.4-2.97-.98-7-1.46l.38-3c9.07 1.13 10.32 2.83 10.32 4.45 0 .4-.14.72-.38 1.13L546-1326v4.04c0 .65-.38 1.22-.96 1.38-1.63.73-3.26 1.05-4.94 1.05-1.68 0-3.36-.32-5.14-.97-.58-.24-.96-.8-.96-1.46v-4.05l-17.62-27.87zm34 43.32c.23.57.13 1.22-.3 1.62l-9.02 9.08c-.3.24-.68.4-1.06.4s-.77-.16-1.06-.4l-9.02-9.08c-.43-.4-.53-1.05-.3-1.62.2-.56.78-.9 1.4-.9h4.47v-4.52h3v6c0 .88-.66 1.53-1.48 1.53h-2.4l5.38 5.35 5.38-5.35h-2.36c-.86 0-1.53-.65-1.53-1.54v-6h3v4.54h4.52c.58 0 1.16.33 1.35.9z" stroke="#000" stroke-opacity="0" fill="#fff"/><use xlink:href="#z" transform="matrix(1,0,0,1,450,-1271) translate(36.229383680555564 21.52777777777778)"/><use xlink:href="#A" transform="matrix(1,0,0,1,450,-1271) translate(2.169053819444443 53.79340277777778)"/><use xlink:href="#B" transform="matrix(1,0,0,1,450,-1271) translate(74.97721354166666 53.79340277777778)"/><use xlink:href="#u" transform="matrix(1,0,0,1,450,-1271) translate(163.12825520833331 53.79340277777778)"/><use xlink:href="#C" transform="matrix(1,0,0,1,450,-1271) translate(63.220486111111114 86.05902777777777)"/><path d="M1084.8-1226h120v120h-120z" stroke="#000" stroke-opacity="0" fill="#01a88d"/><path d="M1159.84-1137.47v-44.95h8.98v44.95h-8.98zm-3.03 2.98h14.96v-50.98h-14.95v51zm-19.48-2.97v-33.02h9v33.03h-9zm-3.02 2.98h15.04v-38.98h-15.04v39zm-19.5-2.97v-19.5h9v19.5h-9zm-3 2.98h15.02v-25.45h-15.03v25.46zm66-68.94v2.98h3.46l-9 7.5h-16.3c-.5 0-1 .3-1.25.76l-6.3 11.23h-16.03c-.67 0-1.18.4-1.43 1l-4.8 12.53h-14.35v2.98h15.44c.6 0 1.18-.38 1.35-1l4.78-12.52h15.87c.6 0 1.1-.3 1.35-.77l6.3-11.24h15.87c.34 0 .67-.06 1-.3l10-8.4v4.28h3.03v-9.02h-9zm1.52 16.5h2.94v59.94H1102.8v-74.9h64.5v2.97h-61.48v68.95h73.5v-56.95z" stroke="#000" stroke-opacity="0" fill="#fff"/><use xlink:href="#D" transform="matrix(1,0,0,1,1054.8000000000002,-1097) translate(7.5238715277777715 21.52777777777778)"/><use xlink:href="#E" transform="matrix(1,0,0,1,1054.8000000000002,-1097) translate(92.13758680555554 21.52777777777778)"/><use xlink:href="#F" transform="matrix(1,0,0,1,1054.8000000000002,-1097) translate(41.32921006944446 53.79340277777778)"/><path d="M160-626h120v120H160z" stroke="#000" stroke-opacity="0" fill="#01a88d"/><path d="M185.52-545h23.92v-3.02h-23.92v3.02zm25.46-10.5h13.5v-3.02h-13.5v3.02zm-25.46 0H208v-3.02H185.5v3.02zm0-31.5H205v-3.02h-19.48v3.02zm68.95 42.08c-.17.17-.43.26-.6.34-.77.42-1.88.92-2.3 2.02-.1.16-.1.42-.1.58v5.97h-2.98v-13.54h4.43v-2.94h-11.96v2.94h4.44V-536h-2.98V-542c0-.16 0-.42-.08-.58-.43-1.1-1.46-1.6-2.3-2.02-.18-.08-.44-.17-.6-.34-4.45-3.02-6.67-8.3-5.82-13.77 1.03-6.04 6.15-10.83 12.3-11.5.26-.08 1.8-.08 2.14 0 6.07.67 11.2 5.46 12.22 11.5.85 5.47-1.37 10.76-5.8 13.78zm8.7-14.2c-1.1-7.38-7.42-13.26-14.85-14.1h-2.74c-7.43.84-13.67 6.72-14.86 14.1-1.1 6.56 1.62 12.94 7 16.72l1.03.5c.25.18.5.26.68.34v7.06c0 .84.7 1.5 1.54 1.5h11.96c.85 0 1.54-.66 1.54-1.5v-6.97c.17-.17.43-.25.68-.42l1.03-.5c5.38-3.78 8.1-10.16 7-16.7zm-14 32.1h-4.44l-.94-1.52h6.3l-.93 1.52zm3.76-4.46h-11.96c-.6 0-1.1.26-1.37.76-.25.5-.17 1.1.1 1.5l2.98 4.55c.34.42.77.67 1.28.67h5.98c.5 0 .94-.25 1.28-.67l3-4.54c.25-.43.33-1.02.08-1.52-.26-.5-.77-.76-1.37-.76zM185.53-566h38.95v-3.02h-38.96v3.02zm13.5-10.5h25.45v-3.02h-25.46v3.02zm-13.5 0h10.5v-3.02h-10.5v3.02zm28.44-26.38l12.9 12.86h-12.9v-12.86zm14.95 68.38H181v-70.48h29.98v16.47c0 .83.68 1.5 1.54 1.5h16.4v17.98H232v-19.5h-.1c0-.4-.07-.75-.4-1l-17.96-18.06c-.25-.25-.68-.42-1.02-.42h-32.98c-.86 0-1.54.67-1.54 1.5v73.5c0 .85.68 1.52 1.54 1.52h50.92c.85 0 1.54-.67 1.54-1.5v-9h-3.08v7.48z" stroke="#000" stroke-opacity="0" fill="#fff"/><use xlink:href="#G" transform="matrix(1,0,0,1,130,-497) translate(7.323133680555557 21.52777777777778)"/><use xlink:href="#H" transform="matrix(1,0,0,1,130,-497) translate(110.361328125 21.52777777777778)"/><use xlink:href="#I" transform="matrix(1,0,0,1,130,-497) translate(45.12152777777778 53.79340277777778)"/><path d="M1404.8-1400h120v120h-120z" stroke="#000" stroke-opacity="0" fill="#c925d1"/><path d="M1502.38-1312.9c-.83 0-1.5-.67-1.5-1.5 0-.82.67-1.48 1.5-1.48.82 0 1.57.66 1.57 1.5 0 .8-.75 1.47-1.57 1.47zm-14.2 12.05c-2.07 0-3.8-1.74-3.8-3.8 0-2.06 1.73-3.7 3.8-3.7 2.06-.02 3.7 1.64 3.7 3.7 0 2.06-1.64 3.8-3.7 3.8zm-6.77-26.34c0-2.88 2.32-5.2 5.3-5.2 2.88 0 5.2 2.32 5.2 5.2 0 2.98-2.32 5.3-5.2 5.3-2.98 0-5.3-2.32-5.3-5.3zm-9-12.7c-.82 0-1.48-.66-1.48-1.5 0-.8.66-1.47 1.5-1.47.82 0 1.48.65 1.48 1.48 0 .84-.66 1.5-1.5 1.5zm-4.53 20.97c-1.65 0-2.97-1.32-2.97-2.97 0-1.66 1.32-2.98 2.97-2.98 1.65 0 3.05 1.32 3.05 2.98 0 1.65-1.4 2.97-3.05 2.97zm31.54-31.46c1.66 0 2.98 1.33 2.98 2.98s-1.32 2.98-2.97 2.98c-1.64 0-2.97-1.33-2.97-2.98s1.33-2.97 2.98-2.97zm2.98 31.47c-2.48 0-4.46 2.06-4.46 4.54 0 .67.17 1.33.4 1.9l-5.27 3.23c-1-1-2.3-1.74-3.8-2l-.33-8c3.47-.98 6.03-4.12 6.03-7.92 0-2.13-.9-4.2-2.3-5.68l5.2-8.76c.48.17.98.25 1.56.25 3.3 0 6.03-2.7 6.03-6.02 0-3.3-2.72-6.02-6.02-6.02-3.3 0-6.02 2.72-6.02 6.02 0 1.65.74 3.22 1.82 4.3l-5.04 8.5c-1.07-.5-2.23-.83-3.47-.83-1.74 0-3.4.58-4.7 1.5l-5.46-5.62c.25-.58.33-1.16.33-1.82 0-2.47-1.98-4.53-4.46-4.53-2.47 0-4.53 2.06-4.53 4.54 0 2.5 2.06 4.47 4.54 4.47.75 0 1.4-.17 2-.5l5.44 5.62c-.9 1.3-1.4 2.88-1.4 4.6v.92l-5.45 1.15c-1.1-1.65-2.98-2.8-5.13-2.8-3.3 0-5.94 2.72-5.94 6.03 0 3.3 2.64 6.02 5.94 6.02 3.3 0 6.03-2.72 6.03-6.02v-.33l5.44-1.16c1.24 2.5 3.72 4.22 6.6 4.47l.34 7.84c-2.8.84-4.87 3.4-4.87 6.45 0 3.72 3.06 6.77 6.78 6.77 3.7 0 6.77-3.05 6.77-6.77 0-.66-.17-1.32-.4-1.98l5.93-3.72c.58.33 1.24.5 1.9.5 2.56 0 4.54-2.07 4.54-4.54s-1.98-4.53-4.54-4.53zm-50.28-58.54c14.6 0 24.77 4.8 24.77 9 0 4.3-10.16 9.08-24.77 9.08-14.53 0-24.77-4.78-24.77-9.07 0-4.2 10.24-9 24.77-9zm24.77 67.62c0 4.13-10.16 8.75-24.77 8.75-14.53 0-24.77-4.62-24.77-8.75v-12.38c4.46 3.8 13.46 6.27 24.28 6.27 2.56 0 5.2-.17 7.68-.4l-.33-3c-2.4.26-4.87.43-7.35.43-14.53 0-24.27-4.63-24.27-8.84v-14.7c4.46 3.8 13.46 6.28 24.28 6.28 5.2 0 10.24-.57 14.62-1.72l-.75-2.9c-4.12 1.08-8.9 1.58-13.87 1.58-14.53 0-24.27-4.54-24.27-8.75v-14.86c4.54 3.9 13.7 6.44 24.77 6.44 11.15 0 20.3-2.55 24.77-6.43v16.92h3.05v-22.54c0-6.77-11.97-11.97-27.82-11.97-15.77 0-27.74 5.2-27.74 11.97v58.62c0 6.7 11.97 11.72 27.74 11.72 15.85 0 27.82-5.03 27.82-11.72v-7.5h-3.05v7.5z" stroke="#000" stroke-opacity="0" fill="#fff"/><use xlink:href="#J" transform="matrix(1,0,0,1,1374.8000000000002,-1271) translate(26.263020833333336 21.52777777777778)"/><use xlink:href="#K" transform="matrix(1,0,0,1,1374.8000000000002,-1271) translate(145.72916666666666 21.52777777777778)"/><use xlink:href="#L" transform="matrix(1,0,0,1,1374.8000000000002,-1271) translate(15.276692708333343 53.79340277777778)"/><use xlink:href="#M" transform="matrix(1,0,0,1,1374.8000000000002,-1271) translate(119.29144965277779 53.79340277777778)"/><use xlink:href="#N" transform="matrix(1,0,0,1,1374.8000000000002,-1271) translate(31.341145833333343 86.05902777777777)"/><use xlink:href="#C" transform="matrix(1,0,0,1,1374.8000000000002,-1271) translate(95.09982638888889 86.05902777777777)"/><path d="M1724.8-1400h120v120h-120z" stroke="#000" stroke-opacity="0" fill="#c925d1"/><path d="M1801.26-1307.74v-8.74c-3.78 2.46-10.58 3.57-17.13 3.57-7.14 0-12.7-1.2-15.8-3.34v8.5c0 2.54 5.9 5.16 15.8 5.16 10.08 0 17.13-2.7 17.13-5.16zm-17.13-18.43c-7.14 0-12.7-1.27-15.8-3.42v8.6c0 2.53 5.97 5.15 15.8 5.15 10.08 0 17.13-2.7 17.13-5.16v-8.83c-3.78 2.47-10.58 3.66-17.13 3.66zm17.13-8.18v-10.1c-3.78 2.4-10.58 3.58-17.13 3.58-7.14 0-12.7-1.27-15.8-3.34v9.85c0 2.54 5.97 5.16 15.8 5.16 10.08 0 17.13-2.7 17.13-5.15zm-32.92-14.7v.08c0 2.46 5.96 5.08 15.8 5.08 11 0 17.12-3 17.12-5.07v-.08c0-2.07-6.04-5.16-17.13-5.16-9.9 0-15.8 2.6-15.8 5.15zm35.95.08v41.22c0 5.64-10.43 8.18-20.17 8.18-11.43 0-18.82-3.18-18.82-8.18v-41.23-.1c0-4.92 7.4-8.17 18.83-8.17 9.74 0 20.16 2.62 20.16 8.18v.08zm21-19.38c.83 0 1.5-.64 1.5-1.5v-7.64c0-.86-.67-1.5-1.5-1.5h-81c-.83 0-1.5.64-1.5 1.5v7.64c0 .87.67 1.5 1.5 1.5 1.86 0 3.3 1.5 3.3 3.34 0 1.83-1.44 3.26-3.3 3.26-.83 0-1.5.7-1.5 1.5v30.75c0 .8.67 1.5 1.5 1.5h14.96v-3.02h-7.47v-4.53h7.46v-3.02h-8.98c-.84 0-1.52.72-1.52 1.5v6.05h-2.94v-27.88c2.78-.72 4.8-3.18 4.8-6.12s-2.02-5.48-4.8-6.12v-4.84h77.96v4.85c-2.78.63-4.8 3.17-4.8 6.1 0 2.95 2.02 5.4 4.8 6.13v27.88h-2.94v-6.04c0-.8-.68-1.5-1.52-1.5h-8.98v3h7.47v4.54h-7.46v3.02h14.95c.83 0 1.5-.7 1.5-1.5v-30.75c0-.8-.67-1.5-1.5-1.5-1.86 0-3.3-1.44-3.3-3.27s1.44-3.34 3.3-3.34zm-58.48 10.32v-12c0-.8-.67-1.5-1.5-1.5h-9c-.84 0-1.5.7-1.5 1.5v25.5c0 .8.66 1.52 1.5 1.52h4.46v-3.03h-2.94v-22.48h5.96v10.47h3.02zm44.94 12h-1.42v3.02h2.94c.84 0 1.5-.73 1.5-1.52v-25.5c0-.8-.66-1.5-1.5-1.5h-9c-.83 0-1.5.7-1.5 1.5v12h3.02v-10.5h5.96v22.5zm-11.92-13.5v-10.5c0-.8-.68-1.5-1.52-1.5h-10.5c-.84 0-1.5.7-1.5 1.5v8.98h3.02v-7.46h7.47v8.96h3.04zm-19.58-1.52v-7.46h-7.47v8.96h-3.04v-10.48c0-.8.68-1.5 1.52-1.5h10.5c.84 0 1.5.7 1.5 1.5v8.97h-3.02z" stroke="#000" stroke-opacity="0" fill="#fff"/><use xlink:href="#O" transform="matrix(1,0,0,1,1694.8000000000002,-1271) translate(12.743055555555571 21.52777777777778)"/><use xlink:href="#P" transform="matrix(1,0,0,1,1694.8000000000002,-1271) translate(76.6427951388889 21.52777777777778)"/><use xlink:href="#Q" transform="matrix(1,0,0,1,1694.8000000000002,-1271) translate(42.43598090277778 53.79340277777778)"/><path d="M221.97-1268h-3.94v-10h3.94z" stroke="#3a414a" stroke-width=".05" fill="#3a414a"/><path d="M221.97-1277.95h-3.94v-2.05h3.94z" fill="#3a414a"/><path stroke="#3a414a" stroke-width=".05" fill="#3a414a"/><path fill="#3a414a"/><path stroke="#3a414a" stroke-width=".05" fill="#3a414a"/><path d="M430.05-1341.88l1.22.3 1.15.47 1.07.64.94.82.82.95.65 1.08.5 1.15.28 1.22.1 1.17v162l.05.7.15.62.24.6.33.52.4.48.5.4.53.34.58.24.6.15.72.06h621.18v3.94H440.72l-1.17-.1-1.22-.28-1.15-.5-1.07-.64-.94-.82-.82-.95-.65-1.08-.5-1.15-.28-1.22-.1-1.17v-162l-.05-.7-.15-.62-.24-.6-.33-.52-.4-.48-.5-.4-.52-.34-.6-.24-.6-.15-.7-.06H282v-3.94h146.88z" stroke="#3a414a" stroke-width=".05" fill="#3a414a"/><path d="M282.05-1338.03H280v-3.94h2.05z" fill="#3a414a"/><path stroke="#3a414a" stroke-width=".05" fill="#3a414a"/><path d="M1078.33-1166l-14.27 4.63v-9.27z" fill="#3a414a"/><path d="M1084.72-1166l-22.63 7.35v-14.7zm-18.68 1.92l5.9-1.92-5.9-1.92zM10.3-1358.03H-38v-3.94h48.3zm126.96 0H109.7v-3.94h27.56z" stroke="#3a414a" stroke-width=".05" fill="#3a414a"/><path d="M-37.95-1358.03H-40v-3.94h2.05z" fill="#3a414a"/><path stroke="#3a414a" stroke-width=".05" fill="#3a414a"/><path d="M153.53-1360l-14.27 4.63v-9.27z" fill="#3a414a"/><path d="M159.92-1360l-22.63 7.35v-14.7zm-18.68 1.92l5.9-1.92-5.9-1.92z" stroke="#3a414a" stroke-width=".05" fill="#3a414a"/><g><use xlink:href="#R" transform="matrix(1,0,0,1,10.312499999999993,-1383.6614583333333) translate(0 17.22222222222222)"/><use xlink:href="#S" transform="matrix(1,0,0,1,10.312499999999993,-1383.6614583333333) translate(50.19097222222222 17.22222222222222)"/><use xlink:href="#T" transform="matrix(1,0,0,1,10.312499999999993,-1383.6614583333333) translate(84.18402777777777 17.22222222222222)"/><use xlink:href="#U" transform="matrix(1,0,0,1,10.312499999999993,-1383.6614583333333) translate(0 43.034722222222214)"/></g><path d="M282-1370h175.26" stroke="#3a414a" stroke-width="4" fill="none"/><path d="M282.05-1368.03H280v-3.94h2.05z" stroke="#3a414a" stroke-width=".05" fill="#3a414a"/><path d="M473.53-1370l-14.27 4.63v-9.27z" stroke="#3a414a" stroke-width="4" fill="#3a414a"/><path d="M158-1318.03H66.08l-.7.06-.62.15-.6.24-.52.33-.48.4-.4.5-.34.52-.24.6-.15.6-.05.7v401.85l.05.7.15.62.24.6.33.52.4.48.5.4.52.34.6.24.6.15.7.05h232.8l1.18.1 1.22.3 1.15.47 1.07.64.94.82.82.95.65 1.08.5 1.15.28 1.22.1 1.17v88.16l-.1 1.17-.3 1.22-.47 1.15-.64 1.07-.82.94-.95.82-1.08.65-1.15.5-1.22.28-1.17.1h-11.34V-808h11.18l.7-.05.62-.15.58-.24.54-.33.48-.4.4-.5.34-.52.24-.6.15-.6.06-.7v-87.85l-.06-.7-.15-.62-.24-.6-.33-.52-.4-.48-.5-.4-.52-.34-.6-.24-.6-.15-.7-.05H65.92l-1.18-.1-1.22-.3-1.15-.47-1.07-.64-.94-.82-.82-.95-.65-1.08-.5-1.15-.28-1.22-.1-1.17v-402.16l.1-1.17.3-1.22.47-1.15.64-1.07.82-.94.95-.82 1.08-.65 1.15-.5 1.22-.28 1.17-.1H158z" stroke="#3a414a" stroke-width=".05" fill="#3a414a"/><path d="M160-1318.03h-2.05v-3.94H160z" fill="#3a414a"/><path stroke="#3a414a" stroke-width=".05" fill="#3a414a"/><path d="M285.54-801.37L271.27-806l14.27-4.63z" fill="#3a414a"/><path d="M287.5-798.65L264.9-806l22.63-7.35zm-9.84-7.35l5.9 1.92v-3.84zM341.92-1311.88l1.2.3 1.17.47 1.06.64.95.82.82.95.66 1.08.48 1.15.3 1.22.08 1.17v732.16l-.1 1.17-.28 1.22-.48 1.15-.66 1.07-.8.94-.96.82-1.07.65-1.17.5-1.2.28-1.2.1h-38V-568h37.86l.7-.05.6-.15.6-.24.53-.33.48-.4.42-.5.33-.52.24-.6.14-.6.05-.7v-731.85l-.06-.7-.15-.62-.25-.6-.33-.52-.4-.48-.5-.4-.53-.34-.6-.24-.6-.15-.7-.06H282v-3.94h58.74z" stroke="#3a414a" stroke-width=".05" fill="#3a414a"/><path d="M282.05-1308.03H280v-3.94h2.05z" fill="#3a414a"/><path stroke="#3a414a" stroke-width=".05" fill="#3a414a"/><path d="M300.74-561.37L286.47-566l14.27-4.63z" fill="#3a414a"/><path d="M302.7-558.65L280.1-566l22.63-7.35zm-9.84-7.35l5.9 1.92v-3.84z" stroke="#3a414a" stroke-width=".05" fill="#3a414a"/><path d="M144.8-866h120v120h-120z" stroke="#000" stroke-opacity="0" fill="#01a88d"/><path d="M210.1-813.5c0 2.5-2 4.54-4.52 4.54-2.52 0-4.5-2.03-4.5-4.53 0-2.48 1.98-4.5 4.5-4.5s4.5 2.02 4.5 4.5zm4.35 15h-17.8c.44-2.6 2.13-7.5 8.85-7.5 6.8 0 8.56 4.9 8.95 7.5zm-16.44-15c0 2.2.93 4.07 2.38 5.47-5.27 2.2-6.88 7.72-6.88 11 0 .86.7 1.48 1.53 1.48h21.1c.84 0 1.53-.62 1.53-1.48 0-.23-.08-5.3-3.6-8.8-.9-.95-2.06-1.65-3.36-2.2 1.53-1.4 2.45-3.27 2.45-5.46 0-4.12-3.37-7.48-7.57-7.48s-7.57 3.36-7.57 7.5zm41.82 8.5h-.07c-.15.25-.38.4-.6.48-.24.08-.4.16-.62.16-.4 0-.77-.16-1.07-.47l-5.28-5.23 2.14-2.1 2.45 2.42c-1.46-11.24-9.1-21.14-20.03-25.2l1.07-2.8c11.86 4.44 20.2 15.05 21.87 27.22l1.53-2.42 2.6 1.56-3.98 6.4zm-45.32 28.17l-1.07 2.8c-11.78-4.44-20.1-14.97-21.87-27.13l-1.6 2.65-2.6-1.57 3.97-6.48.08.08c.16-.4.4-.62.78-.78.53-.23 1.22-.08 1.6.3l5.35 5.24-2.14 2.17-2.53-2.5c1.45 11.32 9.17 21.15 20.03 25.2zm40.5-18.02l2.84 1.1c-4.66 12-15.9 20.43-28.67 21.76l2.98 2.82-2.06 2.18-5.5-5.23c-.17-.15-.24-.3-.4-.46-.22-.54-.07-1.24.4-1.63l5.26-5.3 2.14 2.18-2.44 2.42c11.38-1.4 21.32-9.05 25.45-19.82zm-58.7-22.07l-2.83-1c4.6-12.18 15.98-20.6 28.82-21.85l-3.3-3.05 2.15-2.18 5.5 5.23-.15.07c.23.16.46.4.53.63.23.62.08 1.25-.3 1.64l-5.35 5.3-2.14-2.1 2.52-2.5c-11.4 1.4-21.33 9.05-25.46 19.8zM225.22-806c0 10.76-8.8 19.5-19.64 19.5-10.85 0-19.65-8.74-19.65-19.5s8.8-19.5 19.65-19.5c10.85 0 19.64 8.74 19.64 19.5zm-42.34 0c0 12.4 10.16 22.46 22.7 22.46s22.7-10.06 22.7-22.46-10.16-22.46-22.7-22.46-22.7 10.06-22.7 22.46z" stroke="#000" stroke-opacity="0" fill="#fff"/><g><use xlink:href="#V" transform="matrix(1,0,0,1,114.80000000000007,-737) translate(32.19835069444445 21.52777777777778)"/><use xlink:href="#W" transform="matrix(1,0,0,1,114.80000000000007,-737) translate(13.551432291666686 53.79340277777778)"/><use xlink:href="#F" transform="matrix(1,0,0,1,114.80000000000007,-737) translate(41.32921006944446 86.05902777777777)"/></g><path d="M160-1126h120v120H160z" stroke="#000" stroke-opacity="0" fill="#01a88d"/><path d="M193.12-1051.02c3.44 5.4 9.5 9 16.38 9 10.75 0 19.5-8.72 19.5-19.44 0-10.8-8.75-19.52-19.5-19.52-8.06 0-15.04 4.97-17.98 11.96h3.28c2.77-5.33 8.32-9 14.7-9 9.07 0 16.46 7.4 16.46 16.56 0 9.07-7.4 16.48-16.46 16.48-5.12 0-9.66-2.37-12.68-6.04h-3.7zm22.34-7.5v-2.94h7.56c0-7.5-6.04-13.54-13.52-13.54-7.48 0-13.52 6.05-13.52 13.54h7.56v2.95h-7.23c1.44 6.04 6.82 10.5 13.2 10.5 3.2 0 6.13-1.15 8.48-3.02H211v-2.96h9.76c.84-1.36 1.5-2.88 1.93-4.53h-7.24zm-23.94 4.54h3.28c-1.18-2.3-1.76-4.82-1.76-7.48 0-1.6.16-3.1.58-4.54h-3.1c-.34 1.44-.5 2.95-.5 4.54 0 2.6.5 5.18 1.5 7.48zm-1.93 2.96h-4.12v-2.96h2.85c-.5-1.44-.92-2.95-1.1-4.53h-4.1l1.93 1.93-2.1 2.16-4.54-4.54c-.6-.58-.6-1.52 0-2.1l4.54-4.53 2.1 2.16-1.94 1.94H187c0-1.6.16-3.1.5-4.54h-2.02v-3.02h2.85c3.1-8.72 11.43-14.98 21.17-14.98 6.64 0 12.6 2.88 16.72 7.5h22.26v3h-20c2.2 3.47 3.53 7.57 3.53 12.04h16.48v2.95h-16.72c-1.43 11-10.84 19.5-22.26 19.5-8.65 0-16.13-4.9-19.9-12.02zm25.86-16.5v3.03h-2.94v-1.5h-1.5v4.54h1.5v2.95h-6.04v-2.96h1.5v-4.54h-1.5v1.5h-2.94v-3c0-.8.67-1.52 1.42-1.52h9.08c.75 0 1.42.72 1.42 1.5zm18.06 1.52h14.96v-3.02h-14.96v3.02zm0 14.98h14.96v-2.96h-14.96v2.96zm12.02-34.5h5.37l-5.36-5.4v5.4zm10 .44c.33.3.5.65.5 1.08v52.5c0 .85-.68 1.5-1.52 1.5H208c-.85 0-1.52-.65-1.52-1.5v-6h3.02v4.48H253v-49.47h-8.98c-.84 0-1.5-.64-1.5-1.5v-9H209.5v7.5h-3.02v-9c0-.8.67-1.52 1.5-1.52h36.04c.34 0 .76.2 1 .43l10.5 10.52zm6.46-4.68v55.3c0 .8-.67 1.44-1.5 1.44h-3.04v-2.96h1.52v-53.13l-11.1-9.88h-33.84v1.52H211v-3.03c0-.85.68-1.5 1.52-1.5h35.96c.42 0 .75.14 1 .36l12.02 10.8c.33.3.5.65.5 1.08z" stroke="#000" stroke-opacity="0" fill="#fff"/><g><use xlink:href="#X" transform="matrix(1,0,0,1,130,-997) translate(31.15668402777778 21.52777777777778)"/><use xlink:href="#Y" transform="matrix(1,0,0,1,130,-997) translate(80.75520833333334 21.52777777777778)"/><use xlink:href="#Z" transform="matrix(1,0,0,1,130,-997) translate(7.0464409722222285 53.79340277777778)"/><use xlink:href="#F" transform="matrix(1,0,0,1,130,-997) translate(75.61197916666667 53.79340277777778)"/></g><path d="M602-1340h780.06" stroke="#3a414a" stroke-width="4" fill="none"/><path d="M602.05-1338.03H600v-3.94h2.05z" stroke="#3a414a" stroke-width=".05" fill="#3a414a"/><path d="M1398.33-1340l-14.27 4.63v-9.27z" stroke="#3a414a" stroke-width="4" fill="#3a414a"/><path d="M1526.8-1340h175.26" stroke="#3a414a" stroke-width="4" fill="none"/><path d="M1526.85-1338.03h-2.05v-3.94h2.05z" stroke="#3a414a" stroke-width=".05" fill="#3a414a"/><path d="M1718.33-1340l-14.27 4.63v-9.27z" stroke="#3a414a" stroke-width="4" fill="#3a414a"/><defs><path fill="#fff" d="M98-1322v-168h1126v168H757V0H567v-1322H98" id="aa"/><path fill="#fff" d="M471 26C259 26 90-98 90-318c0-256 228-303 435-329 202-27 287-16 287-108 0-139-79-219-234-219-161 0-248 86-283 164l-173-57c86-203 278-265 451-265 150 0 419 46 419 395V0H815v-152h-12C765-73 660 26 471 26zm31-159c199 0 310-134 310-271v-155c-30 35-226 55-295 64-131 17-246 59-246 186 0 116 97 176 231 176" id="ab"/><path fill="#fff" d="M65 0l393-574-370-544h210c88 136 192 297 267 435 67-142 176-302 264-435h206L661-564 1053 0H844c-94-144-206-310-287-458C484-308 366-142 273 0H65" id="ac"/><path fill="#fff" d="M798-719v166H144v-166h654" id="ad"/><path fill="#fff" d="M52 0l541-1490h220L1361 0h-200l-149-416H398L254 0H52zm404-582h497c-103-290-145-390-251-756-108 377-145 460-246 756" id="ae"/><path fill="#fff" d="M538 24C308 24 148-78 108-271l171-41c32 123 123 178 257 178 156 0 256-77 256-169 0-77-54-128-164-154l-186-44c-203-48-300-148-300-305 0-192 176-326 414-326 230 0 351 112 402 269l-163 42c-31-80-94-158-238-158-133 0-233 69-233 162 0 83 57 129 188 160l169 40c203 48 298 149 298 302 0 196-179 339-441 339" id="af"/><path fill="#fff" d="M158 0v-1118h180V0H158zm91-1301c-68 0-125-53-125-119s57-119 125-119c69 0 126 53 126 119s-57 119-126 119" id="ag"/><path fill="#fff" d="M598-1118v154H368v674c0 100 37 144 132 144 23 0 62-6 92-12L629-6c-37 13-88 20-134 20-193 0-307-107-307-290v-688H20v-154h168v-266h180v266h230" id="ah"/><path fill="#fff" d="M338-670V0H158v-1118h173l1 207c72-158 192-221 342-221 226 0 378 139 378 422V0H872v-695c0-172-96-275-252-275-161 0-282 109-282 300" id="ai"/><g id="a"><use transform="matrix(0.008173828125000001,0,0,0.008173828125000001,0,0)" xlink:href="#aa"/><use transform="matrix(0.008173828125000001,0,0,0.008173828125000001,9.579726562500001,0)" xlink:href="#ab"/><use transform="matrix(0.008173828125000001,0,0,0.008173828125000001,18.979628906250003,0)" xlink:href="#ac"/><use transform="matrix(0.008173828125000001,0,0,0.008173828125000001,27.741972656250006,0)" xlink:href="#ad"/><use transform="matrix(0.008173828125000001,0,0,0.008173828125000001,34.877724609375015,0)" xlink:href="#ae"/><use transform="matrix(0.008173828125000001,0,0,0.008173828125000001,46.427343750000006,0)" xlink:href="#af"/><use transform="matrix(0.008173828125000001,0,0,0.008173828125000001,55.26325195312501,0)" xlink:href="#af"/><use transform="matrix(0.008173828125000001,0,0,0.008173828125000001,64.09916015625001,0)" xlink:href="#ag"/><use transform="matrix(0.008173828125000001,0,0,0.008173828125000001,68.15337890625001,0)" xlink:href="#af"/><use transform="matrix(0.008173828125000001,0,0,0.008173828125000001,76.98928710937501,0)" xlink:href="#ah"/><use transform="matrix(0.008173828125000001,0,0,0.008173828125000001,82.547490234375,0)" xlink:href="#ab"/><use transform="matrix(0.008173828125000001,0,0,0.008173828125000001,91.947392578125,0)" xlink:href="#ai"/><use transform="matrix(0.008173828125000001,0,0,0.008173828125000001,101.837724609375,0)" xlink:href="#ah"/></g><path fill="#fff" d="M458 0L52-1490h194c108 439 233 855 324 1313 92-459 221-873 331-1313h216c110 438 234 854 330 1307 92-455 216-869 323-1307h196L1558 0h-221l-256-944c-26-95-50-200-73-331-22 122-44 223-73 331L680 0H458" id="aj"/><path fill="#fff" d="M628 24c-324 0-524-230-524-574 0-343 198-582 503-582 237 0 487 146 487 559v75H286c9 234 145 362 343 362 132 0 231-58 273-172l174 48C1024-91 857 24 628 24zM287-650h624c-17-190-120-322-304-322-192 0-309 151-320 322" id="ak"/><path fill="#fff" d="M677 24c-213 0-288-135-325-197h-20V0H158v-1490h180v551h14c37-59 106-193 324-193 279 0 474 222 474 576 0 356-194 580-473 580zm-27-161c209 0 317-186 317-421 0-232-105-413-317-413-206 0-314 166-314 413 0 249 111 421 314 421" id="al"/><g id="b"><use transform="matrix(0.008173828125000001,0,0,0.008173828125000001,0,0)" xlink:href="#aj"/><use transform="matrix(0.008173828125000001,0,0,0.008173828125000001,15.644707031250004,0)" xlink:href="#ak"/><use transform="matrix(0.008173828125000001,0,0,0.008173828125000001,25.404257812500006,0)" xlink:href="#al"/></g><path fill="#fff" d="M158 418v-1536h174v179h20c37-59 106-193 324-193 279 0 474 222 474 576 0 356-194 580-473 580-213 0-288-135-325-197h-14v591H158zm492-555c209 0 317-186 317-421 0-232-105-413-317-413-206 0-314 166-314 413 0 249 111 421 314 421" id="am"/><g id="c"><use transform="matrix(0.008173828125000001,0,0,0.008173828125000001,0,0)" xlink:href="#ae"/><use transform="matrix(0.008173828125000001,0,0,0.008173828125000001,11.549619140625001,0)" xlink:href="#am"/><use transform="matrix(0.008173828125000001,0,0,0.008173828125000001,21.799599609375,0)" xlink:href="#am"/></g><path fill="#fff" d="M158 0v-1118h174v172h12c41-113 157-188 290-188 26 0 70 2 91 3v181c-11-2-60-10-108-10-161 0-279 109-279 260V0H158" id="an"/><path fill="#fff" d="M613 24c-304 0-509-231-509-576 0-350 205-580 509-580 216 0 392 114 453 309l-173 49c-33-115-133-197-280-197-223 0-326 196-326 419 0 220 103 415 326 415 150 0 252-85 285-206l172 49C1010-95 832 24 613 24" id="ao"/><path fill="#fff" d="M338-670V0H158v-1490h180v566c73-149 190-208 336-208 226 0 379 139 379 422V0H872v-695c0-172-96-275-252-275-161 0-282 109-282 300" id="ap"/><path fill="#fff" d="M537 14c-226 0-379-139-379-422v-710h180v695c0 172 97 275 253 275 160 0 281-109 281-300v-670h181V0H879v-209C806-46 684 14 537 14" id="aq"/><g id="d"><use transform="matrix(0.008173828125000001,0,0,0.008173828125000001,0,0)" xlink:href="#ae"/><use transform="matrix(0.008173828125000001,0,0,0.008173828125000001,11.549619140625001,0)" xlink:href="#an"/><use transform="matrix(0.008173828125000001,0,0,0.008173828125000001,17.57373046875,0)" xlink:href="#ao"/><use transform="matrix(0.008173828125000001,0,0,0.008173828125000001,27.137109375000005,0)" xlink:href="#ap"/><use transform="matrix(0.008173828125000001,0,0,0.008173828125000001,37.035615234375,0)" xlink:href="#ag"/><use transform="matrix(0.008173828125000001,0,0,0.008173828125000001,41.089833984375005,0)" xlink:href="#ah"/><use transform="matrix(0.008173828125000001,0,0,0.008173828125000001,46.402822265625005,0)" xlink:href="#ak"/><use transform="matrix(0.008173828125000001,0,0,0.008173828125000001,56.162373046875004,0)" xlink:href="#ao"/><use transform="matrix(0.008173828125000001,0,0,0.008173828125000001,65.72575195312501,0)" xlink:href="#ah"/><use transform="matrix(0.008173828125000001,0,0,0.008173828125000001,71.202216796875,0)" xlink:href="#aq"/><use transform="matrix(0.008173828125000001,0,0,0.008173828125000001,81.10072265625001,0)" xlink:href="#an"/><use transform="matrix(0.008173828125000001,0,0,0.008173828125000001,87.12483398437502,0)" xlink:href="#ak"/></g><path d="M98-1322v-168h1126v168H757V0H567v-1322H98" id="ar"/><path d="M613 24c-304 0-509-231-509-576 0-350 205-580 509-580 305 0 511 230 511 580 0 345-206 576-511 576zm0-161c226 0 329-195 329-415 0-222-103-419-329-419-223 0-326 196-326 419 0 220 103 415 326 415" id="as"/><path d="M158 418v-1536h174v179h20c37-59 106-193 324-193 279 0 474 222 474 576 0 356-194 580-473 580-213 0-288-135-325-197h-14v591H158zm492-555c209 0 317-186 317-421 0-232-105-413-317-413-206 0-314 166-314 413 0 249 111 421 314 421" id="at"/><path d="M934 0v166H0V0h934" id="au"/><path d="M180 0v-1490h190v1322h690V0H180" id="av"/><path d="M471 26C259 26 90-98 90-318c0-256 228-303 435-329 202-27 287-16 287-108 0-139-79-219-234-219-161 0-248 86-283 164l-173-57c86-203 278-265 451-265 150 0 419 46 419 395V0H815v-152h-12C765-73 660 26 471 26zm31-159c199 0 310-134 310-271v-155c-30 35-226 55-295 64-131 17-246 59-246 186 0 116 97 176 231 176" id="aw"/><path d="M140 405l46-156c120 36 205 19 263-150l32-93L54-1118h197c107 313 237 620 324 950 87-331 219-637 326-950h196L606 167c-68 178-176 259-334 259-64 0-113-12-132-21" id="ax"/><path d="M628 24c-324 0-524-230-524-574 0-343 198-582 503-582 237 0 487 146 487 559v75H286c9 234 145 362 343 362 132 0 231-58 273-172l174 48C1024-91 857 24 628 24zM287-650h624c-17-190-120-322-304-322-192 0-309 151-320 322" id="ay"/><path d="M158 0v-1118h174v172h12c41-113 157-188 290-188 26 0 70 2 91 3v181c-11-2-60-10-108-10-161 0-279 109-279 260V0H158" id="az"/><g id="e"><use transform="matrix(0.010850694444444444,0,0,0.010850694444444444,0,0)" xlink:href="#ar"/><use transform="matrix(0.010850694444444444,0,0,0.010850694444444444,12.608506944444445,0)" xlink:href="#as"/><use transform="matrix(0.010850694444444444,0,0,0.010850694444444444,25.93315972222222,0)" xlink:href="#at"/><use transform="matrix(0.010850694444444444,0,0,0.010850694444444444,39.53993055555556,0)" xlink:href="#au"/><use transform="matrix(0.010850694444444444,0,0,0.010850694444444444,50.42317708333333,0)" xlink:href="#av"/><use transform="matrix(0.010850694444444444,0,0,0.010850694444444444,62.98828125,0)" xlink:href="#aw"/><use transform="matrix(0.010850694444444444,0,0,0.010850694444444444,75.14105902777777,0)" xlink:href="#ax"/><use transform="matrix(0.010850694444444444,0,0,0.010850694444444444,87.19618055555556,0)" xlink:href="#ay"/><use transform="matrix(0.010850694444444444,0,0,0.010850694444444444,100.15190972222224,0)" xlink:href="#az"/></g><path d="M180 0v-1490h270l367 940c28 72 75 218 110 339 35-117 81-264 110-339l362-940h271V0h-187c2-448-5-837 7-1287-157 497-311 829-483 1287H842C666-458 514-784 354-1284c12 438 5 843 7 1284H180" id="aA"/><path d="M158 0v-1118h180V0H158zm91-1301c-68 0-125-53-125-119s57-119 125-119c69 0 126 53 126 119s-57 119-126 119" id="aB"/><path d="M577 24c-279 0-473-224-473-580 0-354 195-576 474-576 218 0 287 134 324 193h14v-551h180V0H922v-173h-20C865-111 790 24 577 24zm27-161c203 0 314-172 314-421 0-247-108-413-314-413-212 0-317 181-317 413 0 235 108 421 317 421" id="aC"/><path d="M338-1490V0H158v-1490h180" id="aD"/><g id="f"><use transform="matrix(0.008173828125000001,0,0,0.008173828125000001,0,0)" xlink:href="#aA"/><use transform="matrix(0.008173828125000001,0,0,0.008173828125000001,15.121582031250002,0)" xlink:href="#aB"/><use transform="matrix(0.008173828125000001,0,0,0.008173828125000001,19.175800781250004,0)" xlink:href="#aC"/><use transform="matrix(0.008173828125000001,0,0,0.008173828125000001,29.425781250000007,0)" xlink:href="#aC"/><use transform="matrix(0.008173828125000001,0,0,0.008173828125000001,39.67576171875001,0)" xlink:href="#aD"/><use transform="matrix(0.008173828125000001,0,0,0.008173828125000001,43.729980468750014,0)" xlink:href="#ay"/><use transform="matrix(0.008173828125000001,0,0,0.008173828125000001,53.48953125000001,0)" xlink:href="#au"/><use transform="matrix(0.008173828125000001,0,0,0.008173828125000001,61.687880859375014,0)" xlink:href="#av"/><use transform="matrix(0.008173828125000001,0,0,0.008173828125000001,71.15317382812502,0)" xlink:href="#aw"/><use transform="matrix(0.008173828125000001,0,0,0.008173828125000001,80.30786132812501,0)" xlink:href="#ax"/><use transform="matrix(0.008173828125000001,0,0,0.008173828125000001,89.388984375,0)" xlink:href="#ay"/><use transform="matrix(0.008173828125000001,0,0,0.008173828125000001,99.14853515625,0)" xlink:href="#az"/></g><path d="M52 0l541-1490h220L1361 0h-200l-149-416H398L254 0H52zm404-582h497c-103-290-145-390-251-756-108 377-145 460-246 756" id="aE"/><path d="M611 442c-248 0-391-105-460-228l146-94c47 65 117 165 314 165 178 0 307-82 307-266v-224h-17C863-141 792-18 576-18c-268 0-472-195-472-546 0-346 197-568 476-568 216 0 288 133 326 193h17v-179h175V29c0 289-215 413-487 413zm-5-620c203 0 314-146 314-390 0-237-108-403-314-403-213 0-319 180-319 403 0 230 109 390 319 390" id="aF"/><path d="M338-670V0H158v-1118h173l1 207c72-158 192-221 342-221 226 0 378 139 378 422V0H872v-695c0-172-96-275-252-275-161 0-282 109-282 300" id="aG"/><path d="M598-1118v154H368v674c0 100 37 144 132 144 23 0 62-6 92-12L629-6c-37 13-88 20-134 20-193 0-307-107-307-290v-688H20v-154h168v-266h180v266h230" id="aH"/><path d="M538 24C308 24 148-78 108-271l171-41c32 123 123 178 257 178 156 0 256-77 256-169 0-77-54-128-164-154l-186-44c-203-48-300-148-300-305 0-192 176-326 414-326 230 0 351 112 402 269l-163 42c-31-80-94-158-238-158-133 0-233 69-233 162 0 83 57 129 188 160l169 40c203 48 298 149 298 302 0 196-179 339-441 339" id="aI"/><g id="g"><use transform="matrix(0.010850694444444444,0,0,0.010850694444444444,0,0)" xlink:href="#aE"/><use transform="matrix(0.010850694444444444,0,0,0.010850694444444444,15.33203125,0)" xlink:href="#aF"/><use transform="matrix(0.010850694444444444,0,0,0.010850694444444444,28.96050347222222,0)" xlink:href="#ay"/><use transform="matrix(0.010850694444444444,0,0,0.010850694444444444,41.916232638888886,0)" xlink:href="#aG"/><use transform="matrix(0.010850694444444444,0,0,0.010850694444444444,55.045572916666664,0)" xlink:href="#aH"/><use transform="matrix(0.010850694444444444,0,0,0.010850694444444444,62.09852430555555,0)" xlink:href="#aI"/></g><path d="M645 0H180v-1490h484c435 0 692 280 692 742 0 466-257 748-711 748zM370-168h263c363 0 539-218 539-580 0-358-176-574-521-574H370v1154" id="aJ"/><path d="M158 0v-1118h175l1 205c55-151 181-225 313-225 147 0 245 90 285 228 53-141 190-228 352-228 194 0 352 125 352 384V0h-181v-749c0-161-105-225-225-225-151 0-243 103-243 244V0H807v-767c0-124-93-207-219-207-131 0-250 92-250 270V0H158" id="aK"/><g id="h"><use transform="matrix(0.010850694444444444,0,0,0.010850694444444444,0,0)" xlink:href="#aJ"/><use transform="matrix(0.010850694444444444,0,0,0.010850694444444444,16.03732638888889,0)" xlink:href="#aw"/><use transform="matrix(0.010850694444444444,0,0,0.010850694444444444,28.515625,0)" xlink:href="#aH"/><use transform="matrix(0.010850694444444444,0,0,0.010850694444444444,35.89409722222222,0)" xlink:href="#aw"/><use transform="matrix(0.010850694444444444,0,0,0.010850694444444444,48.37239583333333,0)" xlink:href="#au"/><use transform="matrix(0.010850694444444444,0,0,0.010850694444444444,58.50694444444444,0)" xlink:href="#aw"/><use transform="matrix(0.010850694444444444,0,0,0.010850694444444444,70.98524305555556,0)" xlink:href="#aG"/><use transform="matrix(0.010850694444444444,0,0,0.010850694444444444,84.11458333333333,0)" xlink:href="#aC"/><use transform="matrix(0.010850694444444444,0,0,0.010850694444444444,97.72135416666666,0)" xlink:href="#au"/><use transform="matrix(0.010850694444444444,0,0,0.010850694444444444,108.60460069444444,0)" xlink:href="#aA"/><use transform="matrix(0.010850694444444444,0,0,0.010850694444444444,128.67838541666666,0)" xlink:href="#ay"/><use transform="matrix(0.010850694444444444,0,0,0.010850694444444444,141.63411458333331,0)" xlink:href="#aK"/><use transform="matrix(0.010850694444444444,0,0,0.010850694444444444,161.10026041666666,0)" xlink:href="#as"/><use transform="matrix(0.010850694444444444,0,0,0.010850694444444444,174.42491319444443,0)" xlink:href="#az"/><use transform="matrix(0.010850694444444444,0,0,0.010850694444444444,183.13802083333331,0)" xlink:href="#ax"/></g><path d="M763 24c-353 0-583-224-583-531v-983h190v968c0 214 149 370 393 370 243 0 391-156 391-370v-968h190v983c0 307-230 531-581 531" id="aL"/><g id="i"><use transform="matrix(0.010850694444444444,0,0,0.010850694444444444,0,0)" xlink:href="#aL"/><use transform="matrix(0.010850694444444444,0,0,0.010850694444444444,16.536458333333332,0)" xlink:href="#aI"/><use transform="matrix(0.010850694444444444,0,0,0.010850694444444444,28.266059027777775,0)" xlink:href="#ay"/><use transform="matrix(0.010850694444444444,0,0,0.010850694444444444,41.22178819444444,0)" xlink:href="#az"/></g><path d="M370-1490V0H180v-1490h190" id="aM"/><path d="M678-1118v154H420V0H240v-964H20v-154h220v-149c0-194 155-293 318-293 85 0 141 18 168 30l-50 154c-19-6-47-17-97-17-111 0-159 58-159 166v109h258" id="aN"/><path d="M613 24c-304 0-509-231-509-576 0-350 205-580 509-580 216 0 392 114 453 309l-173 49c-33-115-133-197-280-197-223 0-326 196-326 419 0 220 103 415 326 415 150 0 252-85 285-206l172 49C1010-95 832 24 613 24" id="aO"/><g id="j"><use transform="matrix(0.010850694444444444,0,0,0.010850694444444444,0,0)" xlink:href="#aM"/><use transform="matrix(0.010850694444444444,0,0,0.010850694444444444,5.967881944444445,0)" xlink:href="#aG"/><use transform="matrix(0.010850694444444444,0,0,0.010850694444444444,19.09722222222222,0)" xlink:href="#aH"/><use transform="matrix(0.010850694444444444,0,0,0.010850694444444444,26.15017361111111,0)" xlink:href="#ay"/><use transform="matrix(0.010850694444444444,0,0,0.010850694444444444,39.10590277777778,0)" xlink:href="#az"/><use transform="matrix(0.010850694444444444,0,0,0.010850694444444444,47.819010416666664,0)" xlink:href="#aN"/><use transform="matrix(0.010850694444444444,0,0,0.010850694444444444,55.69661458333333,0)" xlink:href="#aw"/><use transform="matrix(0.010850694444444444,0,0,0.010850694444444444,68.17491319444444,0)" xlink:href="#aO"/><use transform="matrix(0.010850694444444444,0,0,0.010850694444444444,80.87022569444444,0)" xlink:href="#ay"/></g><path d="M218-607c0-325 108-727 258-974h175c-155 315-250 682-250 974 0 265 78 531 250 886H476C306-10 218-315 218-607" id="aP"/><path d="M180 0v-1490h224l606 953c40 63 108 177 176 312-27-437-7-821-13-1265h190V0h-226C860-448 622-778 356-1262c27 476 11 792 15 1262H180" id="aQ"/><path d="M65 0l393-574-370-544h210c88 136 192 297 267 435 67-142 176-302 264-435h206L661-564 1053 0H844c-94-144-206-310-287-458C484-308 366-142 273 0H65" id="aR"/><path d="M295 13c-75 0-135-60-135-135s60-135 135-135 135 60 135 135S370 13 295 13" id="aS"/><path d="M157-1118h181V80c1 225-123 350-364 338V252c126 9 184-48 183-172v-1198zm91-183c-68 0-125-53-125-119s57-119 125-119c69 0 126 53 126 119s-57 119-126 119" id="aT"/><g id="k"><use transform="matrix(0.010850694444444444,0,0,0.010850694444444444,0,0)" xlink:href="#aP"/><use transform="matrix(0.010850694444444444,0,0,0.010850694444444444,8.10546875,0)" xlink:href="#aQ"/><use transform="matrix(0.010850694444444444,0,0,0.010850694444444444,24.84809027777778,0)" xlink:href="#ay"/><use transform="matrix(0.010850694444444444,0,0,0.010850694444444444,37.3046875,0)" xlink:href="#aR"/><use transform="matrix(0.010850694444444444,0,0,0.010850694444444444,49.86979166666667,0)" xlink:href="#aH"/><use transform="matrix(0.010850694444444444,0,0,0.010850694444444444,57.13975694444445,0)" xlink:href="#aS"/><use transform="matrix(0.010850694444444444,0,0,0.010850694444444444,63.54166666666667,0)" xlink:href="#aT"/><use transform="matrix(0.010850694444444444,0,0,0.010850694444444444,68.92361111111111,0)" xlink:href="#aI"/></g><path d="M653-1490V0H466v-1314h-10L96-1047v-204l324-239h233" id="aU"/><path d="M120-303v-155l652-1032h231v1020h202v167h-202V0H821v-303H120zm702-167v-782h-12L323-482v12h499" id="aV"/><path d="M96 279C273-86 346-350 346-607c0-292-95-659-250-974h175c150 246 258 650 258 974 0 297-91 602-258 886H96" id="aW"/><g id="l"><use transform="matrix(0.010850694444444444,0,0,0.010850694444444444,0,0)" xlink:href="#aU"/><use transform="matrix(0.010850694444444444,0,0,0.010850694444444444,9.038628472222221,0)" xlink:href="#aV"/><use transform="matrix(0.010850694444444444,0,0,0.010850694444444444,23.39409722222222,0)" xlink:href="#aW"/></g><g id="m"><use transform="matrix(0.010850694444444444,0,0,0.010850694444444444,0,0)" xlink:href="#aL"/><use transform="matrix(0.010850694444444444,0,0,0.010850694444444444,16.536458333333332,0)" xlink:href="#at"/><use transform="matrix(0.010850694444444444,0,0,0.010850694444444444,30.143229166666664,0)" xlink:href="#aD"/><use transform="matrix(0.010850694444444444,0,0,0.010850694444444444,35.52517361111111,0)" xlink:href="#as"/><use transform="matrix(0.010850694444444444,0,0,0.010850694444444444,49.06684027777778,0)" xlink:href="#aw"/><use transform="matrix(0.010850694444444444,0,0,0.010850694444444444,61.545138888888886,0)" xlink:href="#aC"/></g><path d="M419-1970V480H262v-2450h157" id="aX"/><use transform="matrix(0.010850694444444444,0,0,0.010850694444444444,0,0)" xlink:href="#aX" id="n"/><path d="M338-670V0H158v-1490h180v566c73-149 190-208 336-208 226 0 379 139 379 422V0H872v-695c0-172-96-275-252-275-161 0-282 109-282 300" id="aY"/><path d="M677 24c-213 0-288-135-325-197h-20V0H158v-1490h180v551h14c37-59 106-193 324-193 279 0 474 222 474 576 0 356-194 580-473 580zm-27-161c209 0 317-186 317-421 0-232-105-413-317-413-206 0-314 166-314 413 0 249 111 421 314 421" id="aZ"/><g id="o"><use transform="matrix(0.010850694444444444,0,0,0.010850694444444444,0,0)" xlink:href="#aJ"/><use transform="matrix(0.010850694444444444,0,0,0.010850694444444444,16.03732638888889,0)" xlink:href="#aw"/><use transform="matrix(0.010850694444444444,0,0,0.010850694444444444,28.515625,0)" xlink:href="#aI"/><use transform="matrix(0.010850694444444444,0,0,0.010850694444444444,40.24522569444444,0)" xlink:href="#aY"/><use transform="matrix(0.010850694444444444,0,0,0.010850694444444444,53.385416666666664,0)" xlink:href="#aZ"/><use transform="matrix(0.010850694444444444,0,0,0.010850694444444444,66.9921875,0)" xlink:href="#as"/><use transform="matrix(0.010850694444444444,0,0,0.010850694444444444,80.53385416666666,0)" xlink:href="#aw"/><use transform="matrix(0.010850694444444444,0,0,0.010850694444444444,93.01215277777777,0)" xlink:href="#az"/><use transform="matrix(0.010850694444444444,0,0,0.010850694444444444,101.00911458333333,0)" xlink:href="#aC"/></g><path d="M180 0v-1490h510c348 0 508 194 508 460 0 198-88 351-276 417L1256 0h-220L726-579c-117 2-238 0-356 1V0H180zm190-747h312c235 0 327-108 327-283 0-177-92-293-329-293H370v576" id="ba"/><path d="M537 14c-226 0-379-139-379-422v-710h180v695c0 172 97 275 253 275 160 0 281-109 281-300v-670h181V0H879v-209C806-46 684 14 537 14" id="bb"/><g id="p"><use transform="matrix(0.010850694444444444,0,0,0.010850694444444444,0,0)" xlink:href="#ba"/><use transform="matrix(0.010850694444444444,0,0,0.010850694444444444,13.975694444444445,0)" xlink:href="#ay"/><use transform="matrix(0.010850694444444444,0,0,0.010850694444444444,26.931423611111104,0)" xlink:href="#aI"/><use transform="matrix(0.010850694444444444,0,0,0.010850694444444444,38.66102430555555,0)" xlink:href="#bb"/><use transform="matrix(0.010850694444444444,0,0,0.010850694444444444,51.80121527777778,0)" xlink:href="#aD"/><use transform="matrix(0.010850694444444444,0,0,0.010850694444444444,57.50868055555555,0)" xlink:href="#aH"/><use transform="matrix(0.010850694444444444,0,0,0.010850694444444444,64.56163194444444,0)" xlink:href="#aI"/></g><use transform="matrix(0.010850694444444444,0,0,0.010850694444444444,0,0)" xlink:href="#aX" id="q"/><path d="M783 20c-382 0-661-292-661-764 0-473 279-766 661-766 302 0 548 182 601 489h-190c-42-204-217-313-411-313-268 0-476 208-476 590 0 381 209 588 476 588 195 0 369-110 411-313h190c-52 303-296 489-601 489" id="bc"/><g id="r"><use transform="matrix(0.010850694444444444,0,0,0.010850694444444444,0,0)" xlink:href="#bc"/><use transform="matrix(0.010850694444444444,0,0,0.010850694444444444,16.23263888888889,0)" xlink:href="#aY"/><use transform="matrix(0.010850694444444444,0,0,0.010850694444444444,29.37282986111111,0)" xlink:href="#aw"/><use transform="matrix(0.010850694444444444,0,0,0.010850694444444444,41.85112847222222,0)" xlink:href="#aH"/></g><path d="M180 0v-1490h901v168H370v510h643v168H370V0H180" id="bd"/><path d="M657 26c-323 0-524-166-541-416h195c15 169 171 246 346 246 202 0 356-106 356-265 5-203-294-238-475-293-239-73-380-191-380-389 0-252 224-419 512-419 294 0 499 171 508 396H992c-17-145-151-228-328-228-193 0-321 102-321 242 0 156 175 211 284 241l149 41c160 44 422 134 422 412 0 244-197 432-541 432" id="be"/><path d="M180 0v-1490h510c348 0 508 209 508 474 0 266-160 477-507 477H370V0H180zm190-706h312c236 0 327-133 327-310 0-176-91-307-329-307H370v617" id="bf"/><g id="s"><use transform="matrix(0.010850694444444444,0,0,0.010850694444444444,0,0)" xlink:href="#bd"/><use transform="matrix(0.010850694444444444,0,0,0.010850694444444444,11.100260416666666,0)" xlink:href="#aE"/><use transform="matrix(0.010850694444444444,0,0,0.010850694444444444,26.432291666666664,0)" xlink:href="#be"/><use transform="matrix(0.010850694444444444,0,0,0.010850694444444444,40.690104166666664,0)" xlink:href="#ar"/><use transform="matrix(0.010850694444444444,0,0,0.010850694444444444,53.146701388888886,0)" xlink:href="#aE"/><use transform="matrix(0.010850694444444444,0,0,0.010850694444444444,68.47873263888889,0)" xlink:href="#bf"/><use transform="matrix(0.010850694444444444,0,0,0.010850694444444444,82.67144097222221,0)" xlink:href="#aM"/></g><path d="M180 0v-1490h528c311 0 458 177 458 395 0 191-114 278-244 313v14c139 9 302 137 302 371 0 225-148 397-499 397H180zm190-168h350c232 0 321-102 321-231 0-149-120-277-311-277H370v508zm0-668h328c160 0 286-101 286-255 0-129-87-231-280-231H370v486" id="bg"/><path d="M180 0v-1490h190c0 262 1 526-3 784 217-279 467-523 702-784h249L716-845 1319 0h-225L585-716 370-489V0H180" id="bh"/><path d="M180 0v-1490h908v168H370v486h669v168H370v500h727V0H180" id="bi"/><g id="t"><use transform="matrix(0.010850694444444444,0,0,0.010850694444444444,0,0)" xlink:href="#bg"/><use transform="matrix(0.010850694444444444,0,0,0.010850694444444444,14.539930555555555,0)" xlink:href="#aE"/><use transform="matrix(0.010850694444444444,0,0,0.010850694444444444,29.112413194444443,0)" xlink:href="#bc"/><use transform="matrix(0.010850694444444444,0,0,0.010850694444444444,45.34505208333333,0)" xlink:href="#bh"/><use transform="matrix(0.010850694444444444,0,0,0.010850694444444444,60.275607638888886,0)" xlink:href="#bi"/><use transform="matrix(0.010850694444444444,0,0,0.010850694444444444,73.6328125,0)" xlink:href="#aQ"/><use transform="matrix(0.010850694444444444,0,0,0.010850694444444444,90.37543402777777,0)" xlink:href="#aJ"/></g><path d="M593-100v-404H195v-159h398v-403h169v403h398v159H762v404H593" id="bj"/><use transform="matrix(0.010850694444444444,0,0,0.010850694444444444,0,0)" xlink:href="#bj" id="u"/><path d="M789 20c-398 0-667-293-667-764 0-473 273-766 655-766 315 0 558 198 612 487h-196c-61-191-204-311-415-311-262 0-471 207-471 590 0 380 208 588 482 588 249 0 420-165 425-427H828v-166h572v163c0 370-256 606-611 606" id="bk"/><path d="M180 0v-1490h190v644h782v-644h190V0h-190v-678H370V0H180" id="bl"/><g id="v"><use transform="matrix(0.010850694444444444,0,0,0.010850694444444444,0,0)" xlink:href="#av"/><use transform="matrix(0.010850694444444444,0,0,0.010850694444444444,12.565104166666666,0)" xlink:href="#aE"/><use transform="matrix(0.010850694444444444,0,0,0.010850694444444444,27.897135416666664,0)" xlink:href="#aQ"/><use transform="matrix(0.010850694444444444,0,0,0.010850694444444444,44.63975694444444,0)" xlink:href="#bk"/><use transform="matrix(0.010850694444444444,0,0,0.010850694444444444,61.21961805555555,0)" xlink:href="#bk"/><use transform="matrix(0.010850694444444444,0,0,0.010850694444444444,77.79947916666667,0)" xlink:href="#ba"/><use transform="matrix(0.010850694444444444,0,0,0.010850694444444444,92.10069444444444,0)" xlink:href="#aE"/><use transform="matrix(0.010850694444444444,0,0,0.010850694444444444,107.43272569444444,0)" xlink:href="#bf"/><use transform="matrix(0.010850694444444444,0,0,0.010850694444444444,121.62543402777777,0)" xlink:href="#bl"/></g><path d="M784 20c-382 0-662-292-662-764 0-473 280-766 662-766s660 293 660 766c0 472-278 764-660 764zm0-176c266 0 475-207 475-588 0-383-209-590-475-590-268 0-477 208-477 590 0 380 209 588 477 588" id="bm"/><g id="w"><use transform="matrix(0.010850694444444444,0,0,0.010850694444444444,0,0)" xlink:href="#bm"/><use transform="matrix(0.010850694444444444,0,0,0.010850694444444444,16.9921875,0)" xlink:href="#ba"/><use transform="matrix(0.010850694444444444,0,0,0.010850694444444444,31.293402777777775,0)" xlink:href="#bc"/><use transform="matrix(0.010850694444444444,0,0,0.010850694444444444,47.52604166666667,0)" xlink:href="#bl"/><use transform="matrix(0.010850694444444444,0,0,0.010850694444444444,64.04079861111111,0)" xlink:href="#bi"/><use transform="matrix(0.010850694444444444,0,0,0.010850694444444444,77.39800347222223,0)" xlink:href="#be"/><use transform="matrix(0.010850694444444444,0,0,0.010850694444444444,91.65581597222221,0)" xlink:href="#ar"/><use transform="matrix(0.010850694444444444,0,0,0.010850694444444444,106.0004340277778,0)" xlink:href="#ba"/><use transform="matrix(0.010850694444444444,0,0,0.010850694444444444,120.30164930555556,0)" xlink:href="#aE"/><use transform="matrix(0.010850694444444444,0,0,0.010850694444444444,133.74565972222223,0)" xlink:href="#ar"/><use transform="matrix(0.010850694444444444,0,0,0.010850694444444444,147.42838541666666,0)" xlink:href="#bm"/><use transform="matrix(0.010850694444444444,0,0,0.010850694444444444,164.42057291666666,0)" xlink:href="#ba"/></g><g id="z"><use transform="matrix(0.010850694444444444,0,0,0.010850694444444444,0,0)" xlink:href="#aJ"/><use transform="matrix(0.010850694444444444,0,0,0.010850694444444444,16.03732638888889,0)" xlink:href="#ay"/><use transform="matrix(0.010850694444444444,0,0,0.010850694444444444,28.99305555555556,0)" xlink:href="#aC"/><use transform="matrix(0.010850694444444444,0,0,0.010850694444444444,42.599826388888886,0)" xlink:href="#bb"/><use transform="matrix(0.010850694444444444,0,0,0.010850694444444444,55.74001736111111,0)" xlink:href="#aO"/><use transform="matrix(0.010850694444444444,0,0,0.010850694444444444,68.43532986111111,0)" xlink:href="#aH"/><use transform="matrix(0.010850694444444444,0,0,0.010850694444444444,75.70529513888889,0)" xlink:href="#aB"/><use transform="matrix(0.010850694444444444,0,0,0.010850694444444444,81.08723958333333,0)" xlink:href="#as"/><use transform="matrix(0.010850694444444444,0,0,0.010850694444444444,94.41189236111111,0)" xlink:href="#aG"/></g><g id="A"><use transform="matrix(0.010850694444444444,0,0,0.010850694444444444,0,0)" xlink:href="#bd"/><use transform="matrix(0.010850694444444444,0,0,0.010850694444444444,13.118489583333332,0)" xlink:href="#aB"/><use transform="matrix(0.010850694444444444,0,0,0.010850694444444444,18.50043402777778,0)" xlink:href="#aG"/><use transform="matrix(0.010850694444444444,0,0,0.010850694444444444,31.62977430555556,0)" xlink:href="#aC"/><use transform="matrix(0.010850694444444444,0,0,0.010850694444444444,45.236545138888886,0)" xlink:href="#ay"/><use transform="matrix(0.010850694444444444,0,0,0.010850694444444444,58.19227430555555,0)" xlink:href="#az"/></g><g id="B"><use transform="matrix(0.010850694444444444,0,0,0.010850694444444444,0,0)" xlink:href="#aP"/><use transform="matrix(0.010850694444444444,0,0,0.010850694444444444,8.10546875,0)" xlink:href="#bc"/><use transform="matrix(0.010850694444444444,0,0,0.010850694444444444,24.33810763888889,0)" xlink:href="#aD"/><use transform="matrix(0.010850694444444444,0,0,0.010850694444444444,29.720052083333336,0)" xlink:href="#aw"/><use transform="matrix(0.010850694444444444,0,0,0.010850694444444444,42.19835069444444,0)" xlink:href="#bb"/><use transform="matrix(0.010850694444444444,0,0,0.010850694444444444,55.338541666666664,0)" xlink:href="#aC"/><use transform="matrix(0.010850694444444444,0,0,0.010850694444444444,68.9453125,0)" xlink:href="#ay"/></g><g id="C"><use transform="matrix(0.010850694444444444,0,0,0.010850694444444444,0,0)" xlink:href="#ba"/><use transform="matrix(0.010850694444444444,0,0,0.010850694444444444,14.301215277777777,0)" xlink:href="#aE"/><use transform="matrix(0.010850694444444444,0,0,0.010850694444444444,28.873697916666664,0)" xlink:href="#bk"/><use transform="matrix(0.010850694444444444,0,0,0.010850694444444444,45.45355902777778,0)" xlink:href="#aW"/></g><g id="D"><use transform="matrix(0.010850694444444444,0,0,0.010850694444444444,0,0)" xlink:href="#ba"/><use transform="matrix(0.010850694444444444,0,0,0.010850694444444444,13.975694444444445,0)" xlink:href="#ay"/><use transform="matrix(0.010850694444444444,0,0,0.010850694444444444,26.931423611111104,0)" xlink:href="#aF"/><use transform="matrix(0.010850694444444444,0,0,0.010850694444444444,40.55989583333333,0)" xlink:href="#aB"/><use transform="matrix(0.010850694444444444,0,0,0.010850694444444444,45.94184027777778,0)" xlink:href="#aK"/><use transform="matrix(0.010850694444444444,0,0,0.010850694444444444,65.4079861111111,0)" xlink:href="#ay"/></g><path d="M481 0L54-1118h197c107 314 236 620 325 951 87-331 217-637 324-951h197L670 0H481" id="bn"/><g id="E"><use transform="matrix(0.010850694444444444,0,0,0.010850694444444444,0,0)" xlink:href="#aE"/><use transform="matrix(0.010850694444444444,0,0,0.010850694444444444,15.33203125,0)" xlink:href="#aC"/><use transform="matrix(0.010850694444444444,0,0,0.010850694444444444,29.047309027777775,0)" xlink:href="#bn"/><use transform="matrix(0.010850694444444444,0,0,0.010850694444444444,41.536458333333336,0)" xlink:href="#aB"/><use transform="matrix(0.010850694444444444,0,0,0.010850694444444444,46.91840277777778,0)" xlink:href="#aI"/><use transform="matrix(0.010850694444444444,0,0,0.010850694444444444,58.64800347222222,0)" xlink:href="#as"/><use transform="matrix(0.010850694444444444,0,0,0.010850694444444444,71.97265625,0)" xlink:href="#az"/></g><path d="M798-719v166H144v-166h654" id="bo"/><g id="F"><use transform="matrix(0.010850694444444444,0,0,0.010850694444444444,0,0)" xlink:href="#aP"/><use transform="matrix(0.010850694444444444,0,0,0.010850694444444444,8.10546875,0)" xlink:href="#bk"/><use transform="matrix(0.010850694444444444,0,0,0.010850694444444444,24.68532986111111,0)" xlink:href="#bf"/><use transform="matrix(0.010850694444444444,0,0,0.010850694444444444,38.87803819444444,0)" xlink:href="#ar"/><use transform="matrix(0.010850694444444444,0,0,0.010850694444444444,51.584201388888886,0)" xlink:href="#bo"/><use transform="matrix(0.010850694444444444,0,0,0.010850694444444444,61.80555555555555,0)" xlink:href="#aV"/><use transform="matrix(0.010850694444444444,0,0,0.010850694444444444,76.16102430555554,0)" xlink:href="#as"/><use transform="matrix(0.010850694444444444,0,0,0.010850694444444444,89.23611111111109,0)" xlink:href="#aW"/></g><g id="G"><use transform="matrix(0.010850694444444444,0,0,0.010850694444444444,0,0)" xlink:href="#bi"/><use transform="matrix(0.010850694444444444,0,0,0.010850694444444444,13.35720486111111,0)" xlink:href="#aR"/><use transform="matrix(0.010850694444444444,0,0,0.010850694444444444,25.48828125,0)" xlink:href="#at"/><use transform="matrix(0.010850694444444444,0,0,0.010850694444444444,39.09505208333333,0)" xlink:href="#aD"/><use transform="matrix(0.010850694444444444,0,0,0.010850694444444444,44.47699652777778,0)" xlink:href="#aw"/><use transform="matrix(0.010850694444444444,0,0,0.010850694444444444,56.955295138888886,0)" xlink:href="#aB"/><use transform="matrix(0.010850694444444444,0,0,0.010850694444444444,62.33723958333333,0)" xlink:href="#aG"/><use transform="matrix(0.010850694444444444,0,0,0.010850694444444444,75.4665798611111,0)" xlink:href="#ay"/><use transform="matrix(0.010850694444444444,0,0,0.010850694444444444,88.42230902777777,0)" xlink:href="#az"/></g><g id="H"><use transform="matrix(0.010850694444444444,0,0,0.010850694444444444,0,0)" xlink:href="#aE"/><use transform="matrix(0.010850694444444444,0,0,0.010850694444444444,15.33203125,0)" xlink:href="#aF"/><use transform="matrix(0.010850694444444444,0,0,0.010850694444444444,28.96050347222222,0)" xlink:href="#ay"/><use transform="matrix(0.010850694444444444,0,0,0.010850694444444444,41.916232638888886,0)" xlink:href="#aG"/><use transform="matrix(0.010850694444444444,0,0,0.010850694444444444,55.045572916666664,0)" xlink:href="#aH"/></g><g id="I"><use transform="matrix(0.010850694444444444,0,0,0.010850694444444444,0,0)" xlink:href="#aP"/><use transform="matrix(0.010850694444444444,0,0,0.010850694444444444,8.10546875,0)" xlink:href="#bc"/><use transform="matrix(0.010850694444444444,0,0,0.010850694444444444,24.33810763888889,0)" xlink:href="#aD"/><use transform="matrix(0.010850694444444444,0,0,0.010850694444444444,29.720052083333336,0)" xlink:href="#aw"/><use transform="matrix(0.010850694444444444,0,0,0.010850694444444444,42.19835069444444,0)" xlink:href="#bb"/><use transform="matrix(0.010850694444444444,0,0,0.010850694444444444,55.338541666666664,0)" xlink:href="#aC"/><use transform="matrix(0.010850694444444444,0,0,0.010850694444444444,68.9453125,0)" xlink:href="#ay"/><use transform="matrix(0.010850694444444444,0,0,0.010850694444444444,81.65147569444444,0)" xlink:href="#aW"/></g><g id="J"><use transform="matrix(0.010850694444444444,0,0,0.010850694444444444,0,0)" xlink:href="#bc"/><use transform="matrix(0.010850694444444444,0,0,0.010850694444444444,16.23263888888889,0)" xlink:href="#aY"/><use transform="matrix(0.010850694444444444,0,0,0.010850694444444444,29.37282986111111,0)" xlink:href="#az"/><use transform="matrix(0.010850694444444444,0,0,0.010850694444444444,37.369791666666664,0)" xlink:href="#as"/><use transform="matrix(0.010850694444444444,0,0,0.010850694444444444,50.69444444444444,0)" xlink:href="#aK"/><use transform="matrix(0.010850694444444444,0,0,0.010850694444444444,70.16059027777777,0)" xlink:href="#aw"/><use transform="matrix(0.010850694444444444,0,0,0.010850694444444444,82.63888888888889,0)" xlink:href="#aJ"/><use transform="matrix(0.010850694444444444,0,0,0.010850694444444444,98.67621527777777,0)" xlink:href="#bg"/></g><path d="M692-1560L212 224H46l480-1784h166" id="bp"/><use transform="matrix(0.010850694444444444,0,0,0.010850694444444444,0,0)" xlink:href="#bp" id="K"/><g id="L"><use transform="matrix(0.010850694444444444,0,0,0.010850694444444444,0,0)" xlink:href="#bf"/><use transform="matrix(0.010850694444444444,0,0,0.010850694444444444,14.192708333333332,0)" xlink:href="#aB"/><use transform="matrix(0.010850694444444444,0,0,0.010850694444444444,19.57465277777778,0)" xlink:href="#aG"/><use transform="matrix(0.010850694444444444,0,0,0.010850694444444444,32.70399305555556,0)" xlink:href="#ay"/><use transform="matrix(0.010850694444444444,0,0,0.010850694444444444,45.65972222222222,0)" xlink:href="#aO"/><use transform="matrix(0.010850694444444444,0,0,0.010850694444444444,58.35503472222222,0)" xlink:href="#as"/><use transform="matrix(0.010850694444444444,0,0,0.010850694444444444,71.6796875,0)" xlink:href="#aG"/><use transform="matrix(0.010850694444444444,0,0,0.010850694444444444,84.80902777777777,0)" xlink:href="#ay"/></g><g id="M"><use transform="matrix(0.010850694444444444,0,0,0.010850694444444444,0,0)" xlink:href="#aP"/><use transform="matrix(0.010850694444444444,0,0,0.010850694444444444,8.10546875,0)" xlink:href="#ar"/><use transform="matrix(0.010850694444444444,0,0,0.010850694444444444,20.82248263888889,0)" xlink:href="#aw"/><use transform="matrix(0.010850694444444444,0,0,0.010850694444444444,33.30078125,0)" xlink:href="#aR"/></g><g id="N"><use transform="matrix(0.010850694444444444,0,0,0.010850694444444444,0,0)" xlink:href="#ba"/><use transform="matrix(0.010850694444444444,0,0,0.010850694444444444,14.301215277777777,0)" xlink:href="#bb"/><use transform="matrix(0.010850694444444444,0,0,0.010850694444444444,27.44140625,0)" xlink:href="#aD"/><use transform="matrix(0.010850694444444444,0,0,0.010850694444444444,32.82335069444444,0)" xlink:href="#ay"/><use transform="matrix(0.010850694444444444,0,0,0.010850694444444444,45.77907986111111,0)" xlink:href="#aI"/></g><g id="O"><use transform="matrix(0.010850694444444444,0,0,0.010850694444444444,0,0)" xlink:href="#ba"/><use transform="matrix(0.010850694444444444,0,0,0.010850694444444444,13.975694444444445,0)" xlink:href="#ay"/><use transform="matrix(0.010850694444444444,0,0,0.010850694444444444,26.931423611111104,0)" xlink:href="#aC"/><use transform="matrix(0.010850694444444444,0,0,0.010850694444444444,40.53819444444444,0)" xlink:href="#aB"/><use transform="matrix(0.010850694444444444,0,0,0.010850694444444444,45.920138888888886,0)" xlink:href="#aI"/></g><g id="P"><use transform="matrix(0.010850694444444444,0,0,0.010850694444444444,0,0)" xlink:href="#aP"/><use transform="matrix(0.010850694444444444,0,0,0.010850694444444444,8.10546875,0)" xlink:href="#be"/><use transform="matrix(0.010850694444444444,0,0,0.010850694444444444,22.36328125,0)" xlink:href="#ay"/><use transform="matrix(0.010850694444444444,0,0,0.010850694444444444,35.319010416666664,0)" xlink:href="#aI"/><use transform="matrix(0.010850694444444444,0,0,0.010850694444444444,47.04861111111111,0)" xlink:href="#aI"/><use transform="matrix(0.010850694444444444,0,0,0.010850694444444444,58.77821180555555,0)" xlink:href="#aB"/><use transform="matrix(0.010850694444444444,0,0,0.010850694444444444,64.16015625,0)" xlink:href="#as"/><use transform="matrix(0.010850694444444444,0,0,0.010850694444444444,77.48480902777777,0)" xlink:href="#aG"/></g><g id="Q"><use transform="matrix(0.010850694444444444,0,0,0.010850694444444444,0,0)" xlink:href="#aA"/><use transform="matrix(0.010850694444444444,0,0,0.010850694444444444,20.07378472222222,0)" xlink:href="#ay"/><use transform="matrix(0.010850694444444444,0,0,0.010850694444444444,33.029513888888886,0)" xlink:href="#aK"/><use transform="matrix(0.010850694444444444,0,0,0.010850694444444444,52.49565972222221,0)" xlink:href="#as"/><use transform="matrix(0.010850694444444444,0,0,0.010850694444444444,65.82031249999999,0)" xlink:href="#az"/><use transform="matrix(0.010850694444444444,0,0,0.010850694444444444,74.53342013888889,0)" xlink:href="#ax"/><use transform="matrix(0.010850694444444444,0,0,0.010850694444444444,87.02256944444444,0)" xlink:href="#aW"/></g><path fill="#3a414a" d="M135 0v-1490h581c339 0 533 192 533 485 0 204-94 351-264 424L1302 0H964L680-532H440V0H135zm305-779h220c186 0 274-77 274-226 0-150-88-233-275-233H440v459" id="bq"/><path fill="#3a414a" d="M135 0v-1490h997v253H440v360h640v249H440v375h694V0H135" id="br"/><path fill="#3a414a" d="M681 22C323 22 94-145 85-462h297c10 151 131 226 296 226 163 0 271-77 271-190 0-102-95-149-257-189l-164-41c-252-61-403-188-403-405 0-269 236-449 560-449 330 0 546 183 551 445H941c-11-119-106-188-259-188-156 0-244 72-244 172-3 156 226 185 373 221 250 61 445 186 445 436 0 271-213 446-575 446" id="bs"/><path fill="#3a414a" d="M75-1237v-253h1217v253H837V0H531v-1237H75" id="bt"/><g id="R"><use transform="matrix(0.008680555555555556,0,0,0.008680555555555556,0,0)" xlink:href="#bq"/><use transform="matrix(0.008680555555555556,0,0,0.008680555555555556,11.675347222222223,0)" xlink:href="#br"/><use transform="matrix(0.008680555555555556,0,0,0.008680555555555556,22.473958333333336,0)" xlink:href="#bs"/><use transform="matrix(0.008680555555555556,0,0,0.008680555555555556,34.114583333333336,0)" xlink:href="#bt"/></g><path fill="#3a414a" d="M49 0l509-1490h400L1480 0h-339l-115-346H497L386 0H49zm524-585h374c-75-213-124-402-192-666-66 268-110 453-182 666" id="bu"/><path fill="#3a414a" d="M135 0v-1490h581c339 0 533 210 533 503 0 295-197 500-540 500H440V0H135zm305-733h220c186 0 274-104 274-254s-88-251-275-251H440v505" id="bv"/><path fill="#3a414a" d="M440-1490V0H135v-1490h305" id="bw"/><g id="S"><use transform="matrix(0.008680555555555556,0,0,0.008680555555555556,0,0)" xlink:href="#bu"/><use transform="matrix(0.008680555555555556,0,0,0.008680555555555556,13.272569444444445,0)" xlink:href="#bv"/><use transform="matrix(0.008680555555555556,0,0,0.008680555555555556,24.791666666666668,0)" xlink:href="#bw"/></g><path fill="#3a414a" d="M568-82v-393H183v-240h385v-393h254v393h386v240H822v393H568" id="bx"/><use transform="matrix(0.008680555555555556,0,0,0.008680555555555556,0,0)" xlink:href="#bx" id="T"/><path fill="#3a414a" d="M449 0L49-1490h333c89 395 194 758 253 1185 65-426 176-790 269-1185h317c93 394 201 758 268 1181 60-425 164-788 253-1181h334L1675 0h-348c-90-376-204-711-266-1118C1004-714 886-373 798 0H449" id="by"/><path fill="#3a414a" d="M633 22C291 22 81-200 81-553c0-345 210-579 537-579 292 0 525 185 525 567v84H378c7 183 109 277 260 277 105 0 184-46 216-132l272 51C1071-99 893 22 633 22zM380-669h474c-15-146-94-237-233-237-143 0-229 99-241 237" id="bz"/><path fill="#3a414a" d="M754 19C571 19 479-89 437-179h-14V0H128v-1490h300v560h9c41-89 129-202 319-202 248 0 453 193 453 575 0 372-197 576-455 576zm-92-241c156 0 240-139 240-336 0-196-83-334-240-334-154 0-241 131-241 334 0 202 88 336 241 336" id="bA"/><path fill="#3a414a" d="M628 22C291 22 81-210 81-554c0-346 210-578 547-578 336 0 547 232 547 578 0 344-211 576-547 576zm0-236c160 0 242-146 242-341 0-197-82-341-242-341S387-753 387-555c0 195 81 341 241 341" id="bB"/><path fill="#3a414a" d="M628 22C291 22 81-210 81-554c0-346 210-578 547-578 265 0 455 142 497 372l-279 52c-25-116-99-188-215-188-160 0-244 139-244 341 0 200 84 341 244 341 116 0 193-74 217-195l279 51C1085-123 896 22 628 22" id="bC"/><path fill="#3a414a" d="M128 0v-1490h300v802h17l366-430h347L740-633 1179 0H826L514-456l-86 97V0H128" id="bD"/><path fill="#3a414a" d="M683-1118v229H474v562c0 71 29 104 102 104 23 0 73-7 95-13l43 225C647 9 580 16 520 16 296 16 174-96 174-301v-588H20v-229h154v-266h300v266h209" id="bE"/><g id="U"><use transform="matrix(0.008680555555555556,0,0,0.008680555555555556,0,0)" xlink:href="#by"/><use transform="matrix(0.008680555555555556,0,0,0.008680555555555556,17.56076388888889,0)" xlink:href="#bz"/><use transform="matrix(0.008680555555555556,0,0,0.008680555555555556,28.151041666666668,0)" xlink:href="#bA"/><use transform="matrix(0.008680555555555556,0,0,0.008680555555555556,39.35763888888889,0)" xlink:href="#bs"/><use transform="matrix(0.008680555555555556,0,0,0.008680555555555556,50.99826388888889,0)" xlink:href="#bB"/><use transform="matrix(0.008680555555555556,0,0,0.008680555555555556,61.90104166666667,0)" xlink:href="#bC"/><use transform="matrix(0.008680555555555556,0,0,0.008680555555555556,72.36111111111111,0)" xlink:href="#bD"/><use transform="matrix(0.008680555555555556,0,0,0.008680555555555556,82.27430555555556,0)" xlink:href="#bz"/><use transform="matrix(0.008680555555555556,0,0,0.008680555555555556,92.86458333333334,0)" xlink:href="#bE"/></g><g id="V"><use transform="matrix(0.010850694444444444,0,0,0.010850694444444444,0,0)" xlink:href="#aM"/><use transform="matrix(0.010850694444444444,0,0,0.010850694444444444,5.967881944444445,0)" xlink:href="#aG"/><use transform="matrix(0.010850694444444444,0,0,0.010850694444444444,18.77170138888889,0)" xlink:href="#bn"/><use transform="matrix(0.010850694444444444,0,0,0.010850694444444444,30.826822916666664,0)" xlink:href="#ay"/><use transform="matrix(0.010850694444444444,0,0,0.010850694444444444,43.78255208333333,0)" xlink:href="#aI"/><use transform="matrix(0.010850694444444444,0,0,0.010850694444444444,55.51215277777778,0)" xlink:href="#aH"/><use transform="matrix(0.010850694444444444,0,0,0.010850694444444444,62.78211805555555,0)" xlink:href="#aK"/><use transform="matrix(0.010850694444444444,0,0,0.010850694444444444,82.24826388888889,0)" xlink:href="#ay"/><use transform="matrix(0.010850694444444444,0,0,0.010850694444444444,95.20399305555556,0)" xlink:href="#aG"/><use transform="matrix(0.010850694444444444,0,0,0.010850694444444444,108.33333333333333,0)" xlink:href="#aH"/></g><g id="W"><use transform="matrix(0.010850694444444444,0,0,0.010850694444444444,0,0)" xlink:href="#ba"/><use transform="matrix(0.010850694444444444,0,0,0.010850694444444444,13.975694444444445,0)" xlink:href="#ay"/><use transform="matrix(0.010850694444444444,0,0,0.010850694444444444,26.931423611111104,0)" xlink:href="#aO"/><use transform="matrix(0.010850694444444444,0,0,0.010850694444444444,39.62673611111111,0)" xlink:href="#as"/><use transform="matrix(0.010850694444444444,0,0,0.010850694444444444,52.951388888888886,0)" xlink:href="#aK"/><use transform="matrix(0.010850694444444444,0,0,0.010850694444444444,72.41753472222221,0)" xlink:href="#aK"/><use transform="matrix(0.010850694444444444,0,0,0.010850694444444444,91.88368055555556,0)" xlink:href="#ay"/><use transform="matrix(0.010850694444444444,0,0,0.010850694444444444,104.83940972222221,0)" xlink:href="#aG"/><use transform="matrix(0.010850694444444444,0,0,0.010850694444444444,117.96874999999997,0)" xlink:href="#aC"/><use transform="matrix(0.010850694444444444,0,0,0.010850694444444444,131.57552083333331,0)" xlink:href="#ay"/><use transform="matrix(0.010850694444444444,0,0,0.010850694444444444,144.53124999999997,0)" xlink:href="#az"/></g><g id="X"><use transform="matrix(0.010850694444444444,0,0,0.010850694444444444,0,0)" xlink:href="#bf"/><use transform="matrix(0.010850694444444444,0,0,0.010850694444444444,14.192708333333332,0)" xlink:href="#aJ"/><use transform="matrix(0.010850694444444444,0,0,0.010850694444444444,30.23003472222222,0)" xlink:href="#bd"/></g><g id="Y"><use transform="matrix(0.010850694444444444,0,0,0.010850694444444444,0,0)" xlink:href="#bf"/><use transform="matrix(0.010850694444444444,0,0,0.010850694444444444,14.192708333333332,0)" xlink:href="#aw"/><use transform="matrix(0.010850694444444444,0,0,0.010850694444444444,26.671006944444443,0)" xlink:href="#az"/><use transform="matrix(0.010850694444444444,0,0,0.010850694444444444,35.03689236111111,0)" xlink:href="#aI"/><use transform="matrix(0.010850694444444444,0,0,0.010850694444444444,46.76649305555556,0)" xlink:href="#ay"/><use transform="matrix(0.010850694444444444,0,0,0.010850694444444444,59.72222222222221,0)" xlink:href="#az"/></g><g id="Z"><use transform="matrix(0.010850694444444444,0,0,0.010850694444444444,0,0)" xlink:href="#aE"/><use transform="matrix(0.010850694444444444,0,0,0.010850694444444444,15.33203125,0)" xlink:href="#aF"/><use transform="matrix(0.010850694444444444,0,0,0.010850694444444444,28.96050347222222,0)" xlink:href="#ay"/><use transform="matrix(0.010850694444444444,0,0,0.010850694444444444,41.916232638888886,0)" xlink:href="#aG"/><use transform="matrix(0.010850694444444444,0,0,0.010850694444444444,55.045572916666664,0)" xlink:href="#aH"/></g></defs></g></svg>